<svg width="32" height="31" viewBox="0 0 32 31" fill="none" xmlns="http://www.w3.org/2000/svg">
<ellipse cx="16" cy="15.5" rx="16" ry="15.5" fill="#619728" fill-opacity="0.25"/>
<path d="M20.8728 12.6461L16.2436 8.11432C16.2138 8.07855 16.1766 8.04976 16.1345 8.03C16.0924 8.01024 16.0464 8 15.9999 8C15.9534 8 15.9075 8.01024 15.8654 8.03C15.8232 8.04976 15.786 8.07855 15.7563 8.11432L11.127 12.6461C11.0735 12.6958 11.036 12.7604 11.0195 12.8316C11.003 12.9027 11.0081 12.9772 11.0344 13.0454C11.0606 13.1136 11.1067 13.1723 11.1666 13.2141C11.2266 13.2558 11.2977 13.2787 11.3707 13.2796H13.5635V19.1515C13.5837 19.2709 13.6422 19.3806 13.73 19.4641C13.8179 19.5475 13.9304 19.6003 14.0508 19.6144H17.9491C18.144 19.6144 18.1927 19.3708 18.1927 19.1515V13.2796H20.6292C20.7022 13.2787 20.7733 13.2559 20.8333 13.2141C20.8933 13.1724 20.9393 13.1136 20.9655 13.0454C20.9918 12.9772 20.997 12.9027 20.9804 12.8315C20.9639 12.7604 20.9264 12.6958 20.8728 12.6461ZM17.9491 20.3453H14.0507C13.9538 20.3453 13.8608 20.3838 13.7923 20.4524C13.7238 20.5209 13.6853 20.6139 13.6853 20.7108C13.6853 20.8077 13.7238 20.9007 13.7923 20.9692C13.8608 21.0378 13.9538 21.0763 14.0507 21.0763H17.9491C18.046 21.0763 18.139 21.0378 18.2075 20.9692C18.276 20.9007 18.3145 20.8077 18.3145 20.7108C18.3145 20.6139 18.276 20.5209 18.2075 20.4524C18.139 20.3838 18.046 20.3453 17.9491 20.3453ZM17.9491 21.8072H14.0507C13.9538 21.8072 13.8608 21.8457 13.7923 21.9142C13.7238 21.9828 13.6853 22.0757 13.6853 22.1727C13.6853 22.2696 13.7238 22.3626 13.7923 22.4311C13.8608 22.4996 13.9538 22.5381 14.0507 22.5381H17.9491C18.046 22.5381 18.139 22.4996 18.2075 22.4311C18.276 22.3626 18.3145 22.2696 18.3145 22.1727C18.3145 22.0757 18.276 21.9828 18.2075 21.9142C18.139 21.8457 18.046 21.8072 17.9491 21.8072ZM17.9491 23.269H14.0507C13.9538 23.269 13.8608 23.3075 13.7923 23.3761C13.7238 23.4446 13.6853 23.5376 13.6853 23.6345C13.6853 23.7314 13.7238 23.8244 13.7923 23.8929C13.8608 23.9615 13.9538 24 14.0507 24H17.9491C18.046 24 18.139 23.9615 18.2075 23.8929C18.276 23.8244 18.3145 23.7314 18.3145 23.6345C18.3145 23.5376 18.276 23.4446 18.2075 23.3761C18.139 23.3075 18.046 23.269 17.9491 23.269Z" fill="#619728"/>
</svg>
