<svg width="137" height="137" viewBox="0 0 137 137" fill="none" xmlns="http://www.w3.org/2000/svg">
    <circle cx="68.5" cy="68.5" r="67.5" fill="#008E30" fill-opacity="0.15" stroke="#008E30" stroke-width="0.5"/>
    <path fill-rule="evenodd" clip-rule="evenodd" d="M81.2183 78.4597L79.9802 81.2741C82.6068 82.4016 85.1509 83.7123 87.5938 85.1963L89.1548 82.5508C86.6111 80.9981 83.9587 79.6309 81.2183 78.4597ZM54.8787 78.4597C52.1477 79.6351 49.5033 81.0022 46.9651 82.5507L48.5032 85.1963C50.9478 83.7243 53.4919 82.4241 56.1169 81.3051L54.8787 78.4597ZM55.5862 75.8372L55.9938 76.0138L66.1604 80.4127L66.6912 80.6361V98.2241H43.2354V85.9194C43.2552 84.9679 43.4862 84.0327 43.9119 83.1815C44.3375 82.3303 44.947 81.5844 45.6963 80.9977C48.7332 78.82 52.0628 77.0826 55.5862 75.8372ZM80.1494 75.8216C83.7113 76.9501 87.0444 78.7026 89.9932 80.9972C90.7424 81.5841 91.3519 82.3301 91.7775 83.1814C92.2031 84.0327 92.4342 84.9679 92.4541 85.9194V98.2241H68.9983V80.6361L69.5289 80.4129L79.711 76.014L80.1494 75.8216ZM76.2427 71.7306L79.0881 74.5989L68.9983 78.9593V74.3527L76.2427 71.7306ZM59.4468 71.7306L66.6912 74.3527V78.9669L57.8163 75.1296L56.6013 74.5989L59.4468 71.7306ZM60.9695 57.4648H74.7124C75.392 57.4636 76.065 57.5992 76.6912 57.8634C77.3174 58.1277 77.8841 58.5152 78.3575 59.0029C78.8536 59.5172 79.447 59.9277 80.1033 60.2105C79.9115 63.3377 78.5341 66.2739 76.2519 68.4204C73.9697 70.5669 70.9547 71.762 67.8217 71.762C64.6886 71.762 61.6736 70.5669 59.3914 68.4204C57.1092 66.2739 55.7318 63.3377 55.54 60.2105C56.21 59.9322 56.8169 59.5215 57.3242 59.0029C57.7971 58.5145 58.3637 58.1266 58.9901 57.8623C59.6164 57.598 60.2897 57.4628 60.9695 57.4648ZM67.6448 36.8928H68.0447C76.5042 36.8928 82.6565 43.622 82.6565 48.6208V50.4743C83.041 53.912 83.3255 54.727 84.8943 57.5108C84.2118 58.094 83.3388 58.406 82.4412 58.3876C81.5437 58.3691 80.6842 58.0215 80.0262 57.4107C79.3377 56.6968 78.5122 56.1293 77.599 55.7421C76.6859 55.355 75.704 55.1562 74.7122 55.1577H60.9771C59.9847 55.1572 59.0025 55.3572 58.0893 55.7458C57.1762 56.1343 56.3509 56.7033 55.6631 57.4187C55.0051 58.0292 54.1457 58.3768 53.2482 58.3953C52.3507 58.4137 51.4777 58.1018 50.7951 57.5188C50.7951 57.5188 52.8176 55.1575 53.033 50.4743V48.6208C53.033 43.622 59.1853 36.8928 67.6448 36.8928Z" fill="#008E30"/>
</svg>
