<svg width="137" height="137" viewBox="0 0 137 137" fill="none" xmlns="http://www.w3.org/2000/svg">
    <circle cx="68.5" cy="68.5" r="67.5" fill="#D19700" fill-opacity="0.15" stroke="#D19700" stroke-width="0.5"/>
    <path d="M62.9236 48.7122H57.3824V49.0738C57.3824 51.0433 58.9845 52.6436 60.9522 52.6436H66.4935V52.2827C66.4935 50.3148 64.893 48.7122 62.9236 48.7122ZM80.0473 59.8552V59.4943H74.5061C72.5366 59.4943 70.9362 61.0964 70.9362 63.0641V63.4252H76.4773C78.4452 63.4252 80.0473 61.8248 80.0473 59.8553V59.8552ZM57.8978 88.8189H79.53V94.7637H57.8978V88.8189ZM60.7434 100.901C60.7434 103.712 63.0311 106 65.843 106H71.5856C74.3974 106 76.685 103.712 76.685 100.9V99.2057H60.7434V100.901Z" fill="#D19700"/>
    <path d="M86.9664 38.6064C77.1329 28.6969 60.946 28.2718 50.6354 38.4981C38.3199 50.7175 41.4349 70.9095 56.1514 79.1636C58.1114 80.2605 59.4078 82.2094 59.6785 84.3764H66.4917V57.2654H60.9505C56.532 57.2654 52.9378 53.6718 52.9378 49.2533V46.6705C52.9378 45.4447 53.9331 44.4498 55.1593 44.4498H62.9218C67.3403 44.4498 70.9337 48.0448 70.9337 52.4617V56.0734C72.0422 55.5188 73.2648 55.2304 74.5043 55.2312H82.2663C83.4924 55.2312 84.4876 56.2262 84.4876 57.4524V60.0348C84.4876 64.4534 80.8934 68.0475 76.4749 68.0475H70.9337V84.3764H77.7464C78.0136 82.2077 79.2965 80.2673 81.2346 79.1858C96.1896 70.8345 98.8903 50.626 86.9664 38.6064Z" fill="#D19700"/>
</svg>
