<svg width="55" height="55" viewBox="0 0 55 55" fill="none" xmlns="http://www.w3.org/2000/svg">
<g id="Frame" clip-path="url(#clip0_412_818)">
<g id="Group">
<path id="Vector" d="M27.4463 0.00537251C12.2644 0.00537118 -0.042965 12.3127 -0.0429663 27.4946C-0.0429677 42.6765 12.2644 54.9839 27.4463 54.9839C42.6282 54.9839 54.9355 42.6765 54.9355 27.4946C54.9356 12.3127 42.6282 0.00537383 27.4463 0.00537251Z" fill="#D91E1E"/>
<path id="Vector_2" d="M27.5322 45.1763L23.1064 40.7505L14.502 32.146C13.2773 30.9214 13.2773 28.9448 14.502 27.7202C15.7266 26.4956 17.7031 26.4956 18.9277 27.7202L24.7822 33.5747L24.7822 12.9497C24.7822 11.2202 26.1895 9.82373 27.9082 9.82373C29.6377 9.82373 31.0342 11.231 31.0342 12.9497L31.0342 32.8013L35.9541 27.8813C37.1787 26.6567 39.1553 26.6567 40.3799 27.8813C41.6045 29.106 41.6045 31.0825 40.3799 32.3071L31.9365 40.7505L27.5322 45.1763Z" fill="white"/>
</g>
</g>
<defs>
<clipPath id="clip0_412_818">
<rect width="55" height="55" fill="white" transform="translate(55 55) rotate(-180)"/>
</clipPath>
</defs>
</svg>
