<svg width="69" height="31" viewBox="0 0 69 31" fill="none" xmlns="http://www.w3.org/2000/svg">
<rect opacity="0.25" width="69" height="31" rx="5" fill="#4E5669"/>
<path fill-rule="evenodd" clip-rule="evenodd" d="M13.5263 16.408C15.556 16.408 17.183 14.76 17.183 12.704C17.183 10.648 15.556 9 13.5263 9C11.4966 9 9.86964 10.648 9.86964 12.704C9.86964 14.76 11.4966 16.408 13.5263 16.408ZM13.5263 18.2217C10.5452 18.2217 8 18.6984 8 20.6026C8 22.5062 10.5297 23 13.5263 23C16.5067 23 19.0526 22.5233 19.0526 20.619C19.0526 18.7148 16.5229 18.2217 13.5263 18.2217ZM21.1879 14.2226H22.0744C22.4393 14.2226 22.7368 14.5243 22.7368 14.8944C22.7368 15.2643 22.4393 15.5661 22.0744 15.5661H21.1879V16.4336C21.1879 16.8036 20.8912 17.1053 20.5256 17.1053C20.1607 17.1053 19.8632 16.8036 19.8632 16.4336V15.5661H18.9782C18.6125 15.5661 18.3158 15.2643 18.3158 14.8944C18.3158 14.5243 18.6125 14.2226 18.9782 14.2226H19.8632V13.3559C19.8632 12.9859 20.1607 12.6842 20.5256 12.6842C20.8912 12.6842 21.1879 12.9859 21.1879 13.3559V14.2226Z" fill="#4CACDD"/>
<path d="M29.7173 20V12.7273H34.3764V13.8317H31.0348V15.8061H34.0568V16.9105H31.0348V20H29.7173ZM37.4988 20.1065C36.9661 20.1065 36.5044 19.9893 36.1138 19.755C35.7232 19.5206 35.4202 19.1927 35.2047 18.7713C34.9917 18.3499 34.8851 17.8575 34.8851 17.294C34.8851 16.7306 34.9917 16.237 35.2047 15.8132C35.4202 15.3894 35.7232 15.0604 36.1138 14.826C36.5044 14.5916 36.9661 14.4744 37.4988 14.4744C38.0314 14.4744 38.4931 14.5916 38.8837 14.826C39.2743 15.0604 39.5762 15.3894 39.7892 15.8132C40.0047 16.237 40.1124 16.7306 40.1124 17.294C40.1124 17.8575 40.0047 18.3499 39.7892 18.7713C39.5762 19.1927 39.2743 19.5206 38.8837 19.755C38.4931 19.9893 38.0314 20.1065 37.4988 20.1065ZM37.5059 19.0767C37.7947 19.0767 38.0362 18.9974 38.2303 18.8388C38.4244 18.6778 38.5688 18.4624 38.6635 18.1925C38.7606 17.9226 38.8091 17.6219 38.8091 17.2905C38.8091 16.9567 38.7606 16.6548 38.6635 16.3849C38.5688 16.1127 38.4244 15.8961 38.2303 15.7351C38.0362 15.5741 37.7947 15.4936 37.5059 15.4936C37.2099 15.4936 36.9637 15.5741 36.7672 15.7351C36.5731 15.8961 36.4275 16.1127 36.3304 16.3849C36.2357 16.6548 36.1884 16.9567 36.1884 17.2905C36.1884 17.6219 36.2357 17.9226 36.3304 18.1925C36.4275 18.4624 36.5731 18.6778 36.7672 18.8388C36.9637 18.9974 37.2099 19.0767 37.5059 19.0767ZM42.489 12.7273V20H41.2035V12.7273H42.489ZM45.0964 12.7273V20H43.8109V12.7273H45.0964ZM48.7976 20.1065C48.2649 20.1065 47.8033 19.9893 47.4126 19.755C47.022 19.5206 46.719 19.1927 46.5036 18.7713C46.2905 18.3499 46.1839 17.8575 46.1839 17.294C46.1839 16.7306 46.2905 16.237 46.5036 15.8132C46.719 15.3894 47.022 15.0604 47.4126 14.826C47.8033 14.5916 48.2649 14.4744 48.7976 14.4744C49.3303 14.4744 49.7919 14.5916 50.1825 14.826C50.5732 15.0604 50.875 15.3894 51.0881 15.8132C51.3035 16.237 51.4112 16.7306 51.4112 17.294C51.4112 17.8575 51.3035 18.3499 51.0881 18.7713C50.875 19.1927 50.5732 19.5206 50.1825 19.755C49.7919 19.9893 49.3303 20.1065 48.7976 20.1065ZM48.8047 19.0767C49.0935 19.0767 49.335 18.9974 49.5291 18.8388C49.7232 18.6778 49.8677 18.4624 49.9624 18.1925C50.0594 17.9226 50.108 17.6219 50.108 17.2905C50.108 16.9567 50.0594 16.6548 49.9624 16.3849C49.8677 16.1127 49.7232 15.8961 49.5291 15.7351C49.335 15.5741 49.0935 15.4936 48.8047 15.4936C48.5088 15.4936 48.2625 15.5741 48.0661 15.7351C47.8719 15.8961 47.7263 16.1127 47.6293 16.3849C47.5346 16.6548 47.4872 16.9567 47.4872 17.2905C47.4872 17.6219 47.5346 17.9226 47.6293 18.1925C47.7263 18.4624 47.8719 18.6778 48.0661 18.8388C48.2625 18.9974 48.5088 19.0767 48.8047 19.0767ZM53.4718 20L51.9306 14.5455H53.2409L54.1998 18.3807H54.2495L55.2296 14.5455H56.5257L57.5059 18.3594H57.5591L58.5037 14.5455H59.8176L58.2729 20H56.9341L55.9114 16.3139H55.8368L54.8141 20H53.4718Z" fill="#4CACDD"/>
</svg>
