<svg width="26" height="26" viewBox="0 0 26 26" fill="none" xmlns="http://www.w3.org/2000/svg">
<g id="newspaper (2)">
<path id="Path" d="M3.83398 22.9531C4.26858 22.9528 4.62081 22.6006 4.62109 22.166V6.14453H2.79297C1.25115 6.14621 0.00167924 7.39568 0 8.9375V22.166C0.000139546 23.379 0.574626 24.5202 1.54883 25.2429V25.2383C1.55023 23.9768 2.57251 22.9545 3.83398 22.9531Z" fill="#4CACDD"/>
<path id="Shape" fill-rule="evenodd" clip-rule="evenodd" d="M8.9375 0H23.207C24.7488 0.00167924 25.9983 1.25115 26 2.79297V21.1758C25.9969 23.8388 23.8388 25.9969 21.1758 26H3.83398C3.4133 26 3.07227 25.659 3.07227 25.2383C3.07227 24.8176 3.4133 24.4766 3.83398 24.4766C5.10948 24.4752 6.14313 23.4415 6.14453 22.166V2.79297C6.14621 1.25115 7.39568 0.00167924 8.9375 0ZM17.5957 7.16016H10.4863C10.0656 7.16016 9.72461 7.50119 9.72461 7.92188C9.72461 8.34256 10.0656 8.68359 10.4863 8.68359H17.5957C18.0164 8.68359 18.3574 8.34256 18.3574 7.92188C18.3574 7.50119 18.0164 7.16016 17.5957 7.16016ZM21.6582 18.8398H10.4863C10.0656 18.8398 9.72461 18.4988 9.72461 18.0781C9.72461 17.6574 10.0656 17.3164 10.4863 17.3164H21.6582C22.0789 17.3164 22.4199 17.6574 22.4199 18.0781C22.4199 18.4988 22.0789 18.8398 21.6582 18.8398ZM10.4863 13.4631H21.6582C22.0789 13.4631 22.4199 13.1221 22.4199 12.7014C22.4199 12.2807 22.0789 11.9397 21.6582 11.9397H10.4863C10.0656 11.9397 9.72461 12.2807 9.72461 12.7014C9.72461 13.1221 10.0656 13.4631 10.4863 13.4631Z" fill="#4CACDD"/>
</g>
</svg>
