<svg width="55" height="55" viewBox="0 0 55 55" fill="none" xmlns="http://www.w3.org/2000/svg">
<g id="Frame" clip-path="url(#clip0_412_814)">
<g id="Group">
<path id="Vector" d="M27.5537 54.9946C42.7356 54.9946 55.043 42.6873 55.043 27.5054C55.043 12.3235 42.7356 0.0161133 27.5537 0.0161133C12.3718 0.0161133 0.0644531 12.3235 0.0644531 27.5054C0.0644531 42.6873 12.3718 54.9946 27.5537 54.9946Z" fill="#539D04"/>
<path id="Vector_2" d="M27.4678 9.82373L31.8936 14.2495L40.498 22.854C41.7227 24.0786 41.7227 26.0552 40.498 27.2798C39.2734 28.5044 37.2969 28.5044 36.0723 27.2798L30.2178 21.4253V42.0503C30.2178 43.7798 28.8105 45.1763 27.0918 45.1763C25.3623 45.1763 23.9658 43.769 23.9658 42.0503V22.1987L19.0459 27.1187C17.8213 28.3433 15.8447 28.3433 14.6201 27.1187C13.3955 25.894 13.3955 23.9175 14.6201 22.6929L23.0635 14.2495L27.4678 9.82373Z" fill="white"/>
</g>
</g>
<defs>
<clipPath id="clip0_412_814">
<rect width="55" height="55" fill="white"/>
</clipPath>
</defs>
</svg>
