<svg width="55" height="55" viewBox="0 0 55 55" fill="none" xmlns="http://www.w3.org/2000/svg">
<g id="Frame" clip-path="url(#clip0_508_588)">
<g id="Group">
<path id="Vector" d="M0.457034 27.4946C0.457035 12.5889 12.5405 0.505371 27.4463 0.505373C42.3521 0.505374 54.4356 12.5889 54.4355 27.4946C54.4355 42.4004 42.352 54.4839 27.4463 54.4839C12.5405 54.4839 0.457032 42.4004 0.457034 27.4946Z" fill="#D91E1E" fill-opacity="0.16" stroke="#D91E1E"/>
<path id="Vector_2" opacity="0.8" d="M27.5322 45.1763L23.1064 40.7505L14.502 32.146C13.2773 30.9214 13.2773 28.9448 14.502 27.7202C15.7266 26.4956 17.7031 26.4956 18.9277 27.7202L24.7822 33.5747L24.7822 12.9497C24.7822 11.2202 26.1895 9.82373 27.9082 9.82373C29.6377 9.82373 31.0342 11.231 31.0342 12.9497L31.0342 32.8013L35.9541 27.8813C37.1787 26.6567 39.1553 26.6567 40.3799 27.8813C41.6045 29.106 41.6045 31.0825 40.3799 32.3071L31.9365 40.7505L27.5322 45.1763Z" fill="white"/>
</g>
</g>
<defs>
<clipPath id="clip0_508_588">
<rect width="55" height="55" fill="white" transform="translate(55 55) rotate(-180)"/>
</clipPath>
</defs>
</svg>
