<svg width="137" height="137" viewBox="0 0 137 137" fill="none" xmlns="http://www.w3.org/2000/svg">
    <circle cx="68.5" cy="68.5" r="67.5" fill="#E02723" fill-opacity="0.15" stroke="#E02723" stroke-width="0.5"/>
    <path d="M80.7376 82.5623C81.1135 83.2035 82.2461 83.4807 83.3633 83.4807V86.0441C83.3633 87.652 82.0102 88.436 80.7376 88.436C79.4685 88.436 78.1133 87.652 78.1133 86.0441V83.48C79.2319 83.48 80.3659 83.2035 80.7376 82.5623ZM63.785 79.427C65.3201 79.7728 66.8909 79.9401 68.4988 79.9261C70.1109 79.9401 71.6817 79.7728 73.2133 79.427L70.9411 83.2063H68.9762L71.0363 84.6063L71.6656 94.0598H65.3327L66.0593 83.2063L63.785 79.427ZM54.6367 60.6901C55.9058 62.3351 57.9337 63.7022 60.4488 64.6164C62.9352 65.5173 65.7317 65.9219 68.4988 65.8267C71.2659 65.9219 74.0659 65.5166 76.5488 64.6164C79.0646 63.7015 81.0953 62.3344 82.3637 60.6901V62.8664C82.3633 65.1638 81.758 67.4206 80.6085 69.4098C79.4591 71.399 77.8061 73.0504 75.8159 74.198C73.598 75.4763 71.0543 76.0771 68.4988 75.9263C66.7184 76.0319 64.9353 75.7725 63.2588 75.1639C61.5823 74.5554 60.0479 73.6106 58.7498 72.3876C57.4517 71.1646 56.4173 69.6891 55.7101 68.0518C55.0029 66.4145 54.6379 64.6499 54.6374 62.8664L54.6367 60.6901ZM54.594 54.8171H82.4071L82.363 56.6952H54.6367L54.594 54.8171ZM68.4988 45.5274C68.874 46.1728 70.008 46.4465 71.1231 46.4465V49.0134C71.1231 50.6206 69.7707 51.4011 68.4988 51.4011C67.2304 51.4011 65.8773 50.6206 65.8773 49.0134V46.4465C66.9973 46.4465 68.1278 46.1728 68.4988 45.5274ZM68.4988 40.8794C67.0778 40.8794 65.5133 41.4156 64.4815 41.9553C63.274 42.586 61.8488 43.3952 60.2374 44.1967C57.0111 45.8011 53.0379 47.3544 48.6874 47.3544C47.6521 47.3439 47.1341 48.5976 47.867 49.3277C49.6905 51.1505 50.9708 51.8967 51.5315 52.5204C51.8087 52.8305 51.9725 53.093 52.1104 53.6257C52.2861 54.6463 52.3295 55.4485 52.3295 56.2689C52.0007 56.2472 51.6723 56.318 51.3817 56.4733C50.5137 56.9325 50.3282 59.218 50.9736 61.5805C51.3306 62.893 51.8731 63.936 52.4282 64.5408C52.6495 66.5613 53.269 68.518 54.2508 70.2978C55.2327 72.0775 56.5574 73.6451 58.1486 74.9099C53.6714 74.9099 50.2337 75.6428 47.1607 78.6605C44.8521 80.9572 43.1637 84.1555 43.1637 87.757V95.0895C43.1637 95.7671 43.576 96.1213 44.1927 96.1213H92.8098C93.4258 96.1213 93.8374 95.7678 93.8374 95.0895V87.757C93.8374 84.1555 92.1462 80.9579 89.8383 78.6605C86.7681 75.6421 83.3311 74.9099 78.8539 74.9099C80.4441 73.6442 81.7683 72.0764 82.75 70.2969C83.7318 68.5173 84.3518 66.561 84.5743 64.5408C85.128 63.936 85.6677 62.893 86.0289 61.5805C86.6743 59.218 86.4874 56.9325 85.6166 56.4733C85.3271 56.3183 85 56.2474 84.6723 56.2689C84.6723 55.4485 84.7164 54.6463 84.8907 53.6257C85.0293 53.093 85.1945 52.8305 85.471 52.5204C86.0324 51.8967 87.312 51.1498 89.1341 49.3277C89.867 48.5976 89.3497 47.3446 88.3137 47.3544C83.9604 47.3544 79.99 45.8011 76.7637 44.1967C75.1523 43.3952 73.7278 42.586 72.5203 41.9553C71.4885 41.4156 69.924 40.8794 68.4988 40.8794Z" fill="#E02723"/>
</svg>
