<svg width="32" height="31" viewBox="0 0 32 31" fill="none" xmlns="http://www.w3.org/2000/svg">
<ellipse cx="16" cy="15.5" rx="16" ry="15.5" transform="rotate(-180 16 15.5)" fill="#CC3A3A" fill-opacity="0.25"/>
<g clip-path="url(#clip0_255_877)">
<path d="M11.1272 19.3539L15.7564 23.8857C15.7862 23.9215 15.8234 23.9502 15.8655 23.97C15.9076 23.9898 15.9536 24 16.0001 24C16.0466 24 16.0925 23.9898 16.1346 23.97C16.1768 23.9502 16.214 23.9215 16.2437 23.8857L20.873 19.3539C20.9265 19.3042 20.964 19.2396 20.9805 19.1684C20.997 19.0973 20.9919 19.0228 20.9656 18.9546C20.9394 18.8864 20.8933 18.8277 20.8334 18.7859C20.7734 18.7442 20.7023 18.7213 20.6293 18.7204L18.4365 18.7204L18.4365 12.8485C18.4163 12.7291 18.3578 12.6194 18.27 12.5359C18.1821 12.4525 18.0696 12.3997 17.9492 12.3856L14.0509 12.3856C13.856 12.3856 13.8073 12.6292 13.8073 12.8485L13.8073 18.7204L11.3708 18.7204C11.2978 18.7213 11.2267 18.7441 11.1667 18.7859C11.1067 18.8276 11.0607 18.8864 11.0345 18.9546C11.0082 19.0228 11.003 19.0973 11.0196 19.1685C11.0361 19.2396 11.0736 19.3042 11.1272 19.3539ZM14.0509 11.6547L17.9493 11.6547C18.0462 11.6547 18.1392 11.6162 18.2077 11.5476C18.2762 11.4791 18.3147 11.3861 18.3147 11.2892C18.3147 11.1923 18.2762 11.0993 18.2077 11.0308C18.1392 10.9622 18.0462 10.9237 17.9493 10.9237L14.0509 10.9237C13.954 10.9237 13.8611 10.9622 13.7925 11.0308C13.724 11.0993 13.6855 11.1923 13.6855 11.2892C13.6855 11.3861 13.724 11.4791 13.7925 11.5476C13.8611 11.6162 13.954 11.6547 14.0509 11.6547ZM14.0509 10.1928L17.9493 10.1928C18.0462 10.1928 18.1392 10.1543 18.2077 10.0858C18.2762 10.0172 18.3147 9.92426 18.3147 9.82733C18.3147 9.7304 18.2762 9.63744 18.2077 9.5689C18.1392 9.50036 18.0462 9.46185 17.9493 9.46185L14.0509 9.46185C13.954 9.46185 13.8611 9.50036 13.7925 9.5689C13.724 9.63744 13.6855 9.7304 13.6855 9.82733C13.6855 9.92426 13.724 10.0172 13.7925 10.0858C13.8611 10.1543 13.954 10.1928 14.0509 10.1928ZM14.0509 8.73099L17.9493 8.73099C18.0462 8.73099 18.1392 8.69248 18.2077 8.62394C18.2762 8.5554 18.3147 8.46244 18.3147 8.36551C18.3147 8.26858 18.2762 8.17562 18.2077 8.10707C18.1392 8.03853 18.0462 8.00003 17.9493 8.00003L14.0509 8.00003C13.954 8.00003 13.8611 8.03853 13.7925 8.10707C13.724 8.17561 13.6855 8.26858 13.6855 8.36551C13.6855 8.46244 13.724 8.5554 13.7925 8.62394C13.8611 8.69248 13.954 8.73099 14.0509 8.73099Z" fill="#CC3A3A"/>
</g>
<defs>
<clipPath id="clip0_255_877">
<rect width="16" height="16" fill="white" transform="translate(24 24) rotate(-180)"/>
</clipPath>
</defs>
</svg>
