<svg width="85" height="28" viewBox="0 0 85 28" fill="none" xmlns="http://www.w3.org/2000/svg">
<rect opacity="0.25" width="85" height="28" rx="5" fill="#4E5669"/>
<path fill-rule="evenodd" clip-rule="evenodd" d="M21.5263 14.408C23.556 14.408 25.183 12.76 25.183 10.704C25.183 8.64804 23.556 7 21.5263 7C19.4966 7 17.8696 8.64804 17.8696 10.704C17.8696 12.76 19.4966 14.408 21.5263 14.408ZM21.5263 16.2217C18.5452 16.2217 16 16.6984 16 18.6026C16 20.5062 18.5297 21 21.5263 21C24.5067 21 27.0526 20.5233 27.0526 18.619C27.0526 16.7148 24.5229 16.2217 21.5263 16.2217ZM29.1879 12.2226H30.0744C30.4393 12.2226 30.7368 12.5243 30.7368 12.8944C30.7368 13.2643 30.4393 13.5661 30.0744 13.5661H29.1879V14.4336C29.1879 14.8036 28.8912 15.1053 28.5256 15.1053C28.1607 15.1053 27.8632 14.8036 27.8632 14.4336V13.5661H26.9782C26.6125 13.5661 26.3158 13.2643 26.3158 12.8944C26.3158 12.5243 26.6125 12.2226 26.9782 12.2226H27.8632V11.3559C27.8632 10.9859 28.1607 10.6842 28.5256 10.6842C28.8912 10.6842 29.1879 10.9859 29.1879 11.3559V12.2226Z" fill="#4CACDD"/>
<path d="M37.7173 18V10.7273H42.3764V11.8317H39.0348V13.8061H42.0568V14.9105H39.0348V18H37.7173ZM45.4988 18.1065C44.9661 18.1065 44.5044 17.9893 44.1138 17.755C43.7232 17.5206 43.4202 17.1927 43.2047 16.7713C42.9917 16.3499 42.8851 15.8575 42.8851 15.294C42.8851 14.7306 42.9917 14.237 43.2047 13.8132C43.4202 13.3894 43.7232 13.0604 44.1138 12.826C44.5044 12.5916 44.9661 12.4744 45.4988 12.4744C46.0314 12.4744 46.4931 12.5916 46.8837 12.826C47.2743 13.0604 47.5762 13.3894 47.7892 13.8132C48.0047 14.237 48.1124 14.7306 48.1124 15.294C48.1124 15.8575 48.0047 16.3499 47.7892 16.7713C47.5762 17.1927 47.2743 17.5206 46.8837 17.755C46.4931 17.9893 46.0314 18.1065 45.4988 18.1065ZM45.5059 17.0767C45.7947 17.0767 46.0362 16.9974 46.2303 16.8388C46.4244 16.6778 46.5688 16.4624 46.6635 16.1925C46.7606 15.9226 46.8091 15.6219 46.8091 15.2905C46.8091 14.9567 46.7606 14.6548 46.6635 14.3849C46.5688 14.1127 46.4244 13.8961 46.2303 13.7351C46.0362 13.5741 45.7947 13.4936 45.5059 13.4936C45.2099 13.4936 44.9637 13.5741 44.7672 13.7351C44.5731 13.8961 44.4275 14.1127 44.3304 14.3849C44.2357 14.6548 44.1884 14.9567 44.1884 15.2905C44.1884 15.6219 44.2357 15.9226 44.3304 16.1925C44.4275 16.4624 44.5731 16.6778 44.7672 16.8388C44.9637 16.9974 45.2099 17.0767 45.5059 17.0767ZM50.489 10.7273V18H49.2035V10.7273H50.489ZM53.0964 10.7273V18H51.8109V10.7273H53.0964ZM56.7976 18.1065C56.2649 18.1065 55.8033 17.9893 55.4126 17.755C55.022 17.5206 54.719 17.1927 54.5036 16.7713C54.2905 16.3499 54.1839 15.8575 54.1839 15.294C54.1839 14.7306 54.2905 14.237 54.5036 13.8132C54.719 13.3894 55.022 13.0604 55.4126 12.826C55.8033 12.5916 56.2649 12.4744 56.7976 12.4744C57.3303 12.4744 57.7919 12.5916 58.1825 12.826C58.5732 13.0604 58.875 13.3894 59.0881 13.8132C59.3035 14.237 59.4112 14.7306 59.4112 15.294C59.4112 15.8575 59.3035 16.3499 59.0881 16.7713C58.875 17.1927 58.5732 17.5206 58.1825 17.755C57.7919 17.9893 57.3303 18.1065 56.7976 18.1065ZM56.8047 17.0767C57.0935 17.0767 57.335 16.9974 57.5291 16.8388C57.7232 16.6778 57.8677 16.4624 57.9624 16.1925C58.0594 15.9226 58.108 15.6219 58.108 15.2905C58.108 14.9567 58.0594 14.6548 57.9624 14.3849C57.8677 14.1127 57.7232 13.8961 57.5291 13.7351C57.335 13.5741 57.0935 13.4936 56.8047 13.4936C56.5088 13.4936 56.2625 13.5741 56.0661 13.7351C55.8719 13.8961 55.7263 14.1127 55.6293 14.3849C55.5346 14.6548 55.4872 14.9567 55.4872 15.2905C55.4872 15.6219 55.5346 15.9226 55.6293 16.1925C55.7263 16.4624 55.8719 16.6778 56.0661 16.8388C56.2625 16.9974 56.5088 17.0767 56.8047 17.0767ZM61.4718 18L59.9306 12.5455H61.2409L62.1998 16.3807H62.2495L63.2296 12.5455H64.5257L65.5059 16.3594H65.5591L66.5037 12.5455H67.8176L66.2729 18H64.9341L63.9114 14.3139H63.8368L62.8141 18H61.4718Z" fill="#4CACDD"/>
</svg>
