<svg width="32" height="26" viewBox="0 0 32 26" fill="none" xmlns="http://www.w3.org/2000/svg">
<g id="share (4)">
<path id="Path" d="M30.0004 7.90521L22.9695 0.874292C22.3894 0.294161 21.8009 0 21.2206 0C20.4238 0 19.4934 0.606035 19.4934 2.3141V4.70772C14.3852 4.93036 9.61491 7.02528 5.97651 10.6635C2.12288 14.5169 0.000363985 19.6403 0 25.09C0 25.4815 0.250422 25.8292 0.621808 25.9532C0.716626 25.9848 0.813689 26 0.909841 26C1.19053 26 1.46225 25.8698 1.63745 25.6366C5.93362 19.918 12.4016 16.5385 19.4934 16.2717V18.6285C19.4934 20.3364 20.4238 20.9425 21.2206 20.9425H21.2208C21.801 20.9425 22.3895 20.6484 22.9695 20.0683L30.0004 13.0373C30.6838 12.3541 31.0601 11.4428 31.0601 10.4712C31.0601 9.49983 30.6838 8.58847 30.0004 7.90521Z" fill="#4CACDD"/>
</g>
</svg>
