<svg width="137" height="137" viewBox="0 0 137 137" fill="none" xmlns="http://www.w3.org/2000/svg">
    <circle cx="68.5" cy="68.5" r="67.5" fill="#72DE00" fill-opacity="0.15" stroke="#72DE00" stroke-width="0.5"/>
    <g clip-path="url(#clip0_106_1643)">
        <path d="M60.4845 68.5C65.0214 68.5 69.498 65.1292 73.8732 65.1292C76.8765 65.1292 79.2763 66.9261 80.1223 69.4487C80.5512 70.7278 82.1652 71.1322 83.1681 70.2297C83.4781 69.949 83.6867 69.5738 83.7613 69.1623C83.8359 68.7508 83.7724 68.3262 83.5807 67.9545C82.316 65.4652 80.4547 63.3278 78.1629 61.7331C75.871 60.1384 73.2199 59.136 70.4463 58.8155C67.6727 58.4949 64.8628 58.8661 62.2676 59.8959C59.6724 60.9257 57.3726 62.5822 55.5734 64.7173C55.3457 64.9858 55.1927 65.3095 55.1298 65.6558C55.0669 66.0022 55.0963 66.359 55.215 66.6904C55.3337 67.0218 55.5376 67.3161 55.8061 67.5437C56.0746 67.7713 56.3983 67.9243 56.7447 67.9871C58.0881 68.2284 59.4594 68.5 60.4845 68.5Z" fill="#72DE00"/>
        <path d="M56.0314 97H40.8907C40.6545 97 40.428 96.9062 40.261 96.7392C40.094 96.5722 40.0001 96.3456 40.0001 96.1094V86.3125C40.0001 83.2137 40.4882 78.7605 42.8135 75.1434C45.2674 71.3262 49.1152 69.3907 54.2501 69.3907C55.5116 69.3907 59.1329 70.2813 60.4845 70.2813C63.8403 70.2813 67.2901 68.9002 70.3339 67.6816C79.1622 64.147 80.784 73.8087 76.0704 75.5926C72.5937 76.9085 66.6521 77.8271 63.8511 80.5212L78.7522 76.5999L87.2835 68.9217C88.4835 63.4758 88.7811 56.0313 96.1095 56.0313C96.2383 56.0331 96.3651 56.0625 96.4816 56.1175C96.598 56.1725 96.7013 56.2518 96.7846 56.35C96.8678 56.4483 96.9291 56.5632 96.9642 56.6871C96.9993 56.811 97.0074 56.941 96.9881 57.0683C96.8956 57.625 94.5122 73.1837 94.0674 73.5829L79.8174 87.8329C79.5094 88.2226 60.1815 92.5033 59.7029 92.6137C58.911 92.7934 58.2039 93.2376 57.6984 93.8731C57.1929 94.5086 56.919 95.2974 56.922 96.1094C56.922 96.3456 56.8282 96.5722 56.6611 96.7392C56.4941 96.9062 56.2676 97 56.0314 97ZM85.353 41.2967C85.0635 41.2025 78.2227 39.0064 73.6695 40.602C71.1051 41.5006 69.4482 42.7553 68.5262 44.0906C67.6243 42.7393 65.9735 41.4696 63.3986 40.5669C58.8881 38.9861 52.0988 41.2031 51.8116 41.2981C51.6834 41.3426 51.567 41.4155 51.4709 41.5113C51.3749 41.6072 51.3018 41.7235 51.257 41.8515C51.2122 41.9796 51.1969 42.1161 51.2123 42.2509C51.2277 42.3857 51.2734 42.5153 51.3459 42.6299C52.7383 44.7649 57.345 51.1959 63.9947 51.1959C65.3047 51.1959 66.6089 50.8581 67.6095 50.1494V56.1409C67.6095 56.3772 67.7033 56.6037 67.8704 56.7707C68.0374 56.9377 68.2639 57.0316 68.5001 57.0316C68.7363 57.0316 68.9629 56.9377 69.1299 56.7707C69.2969 56.6037 69.3907 56.3772 69.3907 56.1409V50.2534C71.4362 51.6776 74.7359 51.3063 77.1101 50.4743C81.6624 48.879 85.6527 42.8881 85.8203 42.634C85.8936 42.5189 85.9398 42.3888 85.9555 42.2534C85.9712 42.1179 85.956 41.9807 85.9111 41.8519C85.8661 41.7232 85.7925 41.6064 85.6958 41.5102C85.5991 41.414 85.4819 41.341 85.353 41.2967Z" fill="#72DE00"/>
    </g>
    <defs>
        <clipPath id="clip0_106_1643">
            <rect width="57" height="57" fill="white" transform="translate(40.0001 40)"/>
        </clipPath>
    </defs>
</svg>
