<svg width="30" height="30" viewBox="0 0 30 30" fill="none" xmlns="http://www.w3.org/2000/svg">
<circle cx="15" cy="15" r="15" fill="#4CACDD"/>
<path d="M18.5 11.5C18.1442 11.5 17.8175 11.2959 17.6542 10.9809L17.2342 10.135C16.9659 9.60419 16.2659 9.16669 15.6709 9.16669H14.335C13.7342 9.16669 13.0342 9.60419 12.7658 10.135L12.3458 10.9809C12.1825 11.2959 11.8558 11.5 11.5 11.5C10.2342 11.5 9.23085 12.5675 9.31252 13.8275L9.61585 18.6459C9.68585 19.8475 10.3333 20.8334 11.9433 20.8334H18.0567C19.6667 20.8334 20.3084 19.8475 20.3842 18.6459L20.6875 13.8275C20.7692 12.5675 19.7659 11.5 18.5 11.5ZM14.125 12.2292H15.875C16.1142 12.2292 16.3125 12.4275 16.3125 12.6667C16.3125 12.9059 16.1142 13.1042 15.875 13.1042H14.125C13.8858 13.1042 13.6875 12.9059 13.6875 12.6667C13.6875 12.4275 13.8858 12.2292 14.125 12.2292ZM15 18.57C13.915 18.57 13.0283 17.6892 13.0283 16.5984C13.0283 15.5075 13.9092 14.6267 15 14.6267C16.0909 14.6267 16.9717 15.5075 16.9717 16.5984C16.9717 17.6892 16.085 18.57 15 18.57Z" fill="white"/>
</svg>
