<svg width="137" height="137" viewBox="0 0 137 137" fill="none" xmlns="http://www.w3.org/2000/svg">
    <circle cx="68.5" cy="68.5" r="67.5" fill="#5772FF" fill-opacity="0.15" stroke="#5772FF" stroke-width="0.5"/>
    <path fill-rule="evenodd" clip-rule="evenodd" d="M88.6273 59.8076H85.7648V57.9184C85.7648 57.1294 86.4064 56.4872 87.196 56.4872C87.9856 56.4872 88.6272 57.1295 88.6272 57.9184V59.8076H88.6273ZM84.1478 59.8076V57.2549C84.1478 56.4061 83.4576 55.7165 82.6088 55.7165C81.7601 55.7165 81.071 56.4061 81.071 57.2549V60.5681C81.6223 60.0953 82.3393 59.8076 83.1219 59.8076H84.1478ZM76.6493 57.788V62.2221C76.6493 62.9955 77.2774 63.6242 78.0508 63.6242C78.8242 63.6242 79.4541 62.9955 79.4541 62.2221V57.788C79.4541 57.0146 78.8242 56.3854 78.0508 56.3854C77.2774 56.3854 76.6493 57.0146 76.6493 57.788ZM73.8393 57.5829C73.1828 57.5829 72.6484 58.1174 72.6484 58.7745V62.4683C72.6484 63.1254 73.1829 63.6599 73.8393 63.6599C74.4958 63.6599 75.0323 63.1254 75.0323 62.4683V58.7745C75.0323 58.1172 74.4971 57.5829 73.8393 57.5829ZM75.3173 38.4933C75.3173 37.7043 74.6764 37.0621 73.8868 37.0621C73.0972 37.0621 72.4556 37.7044 72.4556 38.4933V40.383H75.3175L75.3173 38.4933ZM70.8385 40.383V37.8296C70.8385 36.9815 70.1489 36.2913 69.3 36.2913C68.4511 36.2913 67.7622 36.9815 67.7622 37.8296V41.1435C68.3142 40.6701 69.0305 40.383 69.8131 40.383H70.8385ZM64.7427 44.1988C65.5161 44.1988 66.1448 43.5702 66.1448 42.7968V38.3627C66.1448 37.5893 65.5155 36.9606 64.7427 36.9606C63.9698 36.9606 63.3406 37.5892 63.3406 38.3627V42.7968C63.3406 43.5702 63.9692 44.1988 64.7427 44.1988ZM60.5314 44.2345C61.1885 44.2345 61.7236 43.7 61.7236 43.0429V39.3491C61.7236 38.692 61.1886 38.1575 60.5314 38.1575C59.8741 38.1575 59.3398 38.692 59.3398 39.3491V43.0429C59.3398 43.7 59.8743 44.2345 60.5314 44.2345ZM61.4133 59.1945L61.3789 61.4798H71.0308V58.7743C71.0308 57.2256 72.2913 55.9657 73.8395 55.9657C74.2459 55.9657 74.6318 56.054 74.9811 56.2104C75.335 55.6611 75.6805 55.1695 76.0169 54.6922C77.2937 52.881 78.3014 51.451 78.7164 48.2113C78.9859 46.1163 78.7677 44.3454 78.1021 43.2233C77.6144 42.3999 76.7559 41.9999 75.4766 41.9999H69.8132C68.9651 41.9999 68.2749 42.6902 68.2749 43.5383C68.2749 44.3864 68.9651 45.0766 69.8132 45.0766H72.7491C73.481 45.0766 73.942 45.3208 74.1213 45.8027C74.2453 46.1391 74.2492 46.6644 73.5589 47.2581C73.4419 47.3588 73.3206 47.4613 73.1953 47.5678C71.7192 48.816 69.8828 50.3693 69.3723 53.513C69.3564 53.6188 69.3197 53.7204 69.2643 53.812C69.2089 53.9035 69.1358 53.9832 69.0494 54.0463C68.9629 54.1094 68.8648 54.1547 68.7607 54.1796C68.6566 54.2045 68.5486 54.2085 68.443 54.1913C68.3374 54.1742 68.2362 54.1362 68.1453 54.0797C68.0545 54.0231 67.9757 53.9491 67.9137 53.8619C67.8517 53.7747 67.8076 53.676 67.7839 53.5716C67.7603 53.4673 67.7577 53.3592 67.7761 53.2538C68.33 49.8432 70.1957 48.0106 71.7264 46.6937H69.8132C68.5436 46.6937 67.4481 45.9397 66.9474 44.8566C66.3961 45.4468 65.6116 45.8164 64.7428 45.8164C63.9097 45.8164 63.1538 45.4768 62.6069 44.9287C62.0926 45.4943 61.3543 45.8521 60.5315 45.8521C60.1696 45.8517 59.8112 45.7811 59.4762 45.6443C58.7157 52.9195 59.6755 54.517 60.4548 55.8138C60.9386 56.619 61.4393 57.4516 61.4133 59.1945ZM60.9827 67.6217C60.9827 66.8327 60.3411 66.1904 59.5515 66.1904C58.7619 66.1904 58.1203 66.8327 58.1203 67.6217V69.5114H60.9827V67.6217ZM56.5032 69.5114V66.958C56.5032 66.1092 55.813 65.419 54.9647 65.419C54.1165 65.419 53.4271 66.1092 53.4271 66.958V70.2719C53.9973 69.7806 54.7251 69.5106 55.4778 69.5114H56.5032ZM50.4074 73.3271C51.1808 73.3271 51.8095 72.6979 51.8095 71.9245V67.4911C51.8095 66.7177 51.1808 66.0885 50.4074 66.0885C49.634 66.0885 49.0047 66.7177 49.0047 67.4911V71.9245C49.0047 72.6979 49.634 73.3271 50.4074 73.3271ZM46.1961 73.3622C46.8532 73.3622 47.3877 72.8284 47.3877 72.1711V68.4773C47.3877 67.8202 46.8532 67.2857 46.1961 67.2857C45.539 67.2857 45.0044 67.8202 45.0044 68.4773V72.1711C45.0044 72.8284 45.5388 73.3622 46.1961 73.3622ZM47.078 88.3229L47.0436 90.6069H58.5774C58.6689 89.4361 58.9801 88.3588 59.5411 87.2554C60.2671 85.8268 61.0191 84.7612 61.6821 83.8201C62.9582 82.0102 63.9667 80.579 64.3816 77.3391C64.6505 75.2449 64.4316 73.4727 63.7667 72.3517C63.2783 71.5283 62.4198 71.1276 61.1419 71.1276H55.4779C54.6299 71.1276 53.9395 71.8179 53.9395 72.6667C53.9395 73.5154 54.6297 74.2045 55.4779 74.2045H58.4138C59.145 74.2045 59.6068 74.4487 59.7853 74.9311C59.91 75.2663 59.9139 75.7923 59.2236 76.3865C59.1061 76.4865 58.9847 76.5897 58.8593 76.6949C57.3839 77.9444 55.5475 79.4964 55.037 82.6408C55.0202 82.7457 54.9828 82.8463 54.9271 82.9368C54.8714 83.0272 54.7984 83.1059 54.7122 83.1681C54.6261 83.2303 54.5286 83.275 54.4252 83.2995C54.3218 83.324 54.2146 83.3279 54.1097 83.311C53.6687 83.2375 53.3694 82.8226 53.4408 82.3823C53.9947 78.9711 55.8597 77.1385 57.3911 75.8222H55.4779C54.2083 75.8222 53.1128 75.0682 52.6121 73.9851C52.0608 74.5753 51.2763 74.9442 50.4075 74.9442C49.5744 74.9442 48.8185 74.6046 48.2716 74.0577C47.7574 74.6221 47.019 74.9792 46.1962 74.9792C45.8228 74.9792 45.4675 74.9053 45.141 74.7721C44.3805 82.048 45.3403 83.6448 46.1197 84.941C46.6035 85.7469 47.1041 86.58 47.0781 88.3231L47.078 88.3229ZM58.7145 92.2238H46.787C46.1512 92.2238 45.6344 92.7413 45.6344 93.3778V100.709H59.8671V93.3778C59.8671 92.7415 59.3503 92.2238 58.7145 92.2238ZM71.3126 63.6863C71.2214 63.4982 71.1517 63.3004 71.1048 63.0967H61.1223C60.4865 63.0967 59.9697 63.6136 59.9697 64.2488V64.6027C61.4529 64.8073 62.6004 66.0827 62.6004 67.6217V69.6796C63.9759 70.0205 64.7409 70.8244 65.1577 71.5264C66.0058 72.9564 66.3 75.0942 65.9857 77.5456C65.5201 81.1829 64.2979 82.9173 63.0038 84.7512C62.3414 85.6922 61.6563 86.6637 60.9822 87.9884C60.4744 88.9872 60.2185 89.9574 60.1744 91.027C60.9595 91.5179 61.4848 92.3862 61.4848 93.3777V100.709H71.6602V83.6744C71.6602 82.6432 72.2277 81.7445 73.0648 81.2671L73.1051 78.5949C73.124 77.3136 72.8109 76.7934 72.3771 76.0707C71.4297 74.4953 70.2517 72.5347 71.3128 63.6861L71.3126 63.6863ZM86.3577 82.5213H74.431C73.7951 82.5213 73.2776 83.0382 73.2776 83.6746V100.709H87.511V83.6746C87.511 83.0382 86.9941 82.5213 86.3577 82.5213ZM91.41 62.6486C90.9222 61.8252 90.0638 61.4252 88.7845 61.4252H83.1217C82.273 61.4252 81.5832 62.1148 81.5832 62.963C81.5832 63.8112 82.2728 64.5013 83.1217 64.5013H86.0571C86.789 64.5013 87.25 64.7462 87.4292 65.228C87.5532 65.5637 87.5571 66.0892 86.8675 66.6827C86.7465 66.7863 86.625 66.8896 86.5033 66.9925C85.0279 68.2406 83.1907 69.7939 82.6816 72.9377C82.6088 73.38 82.1932 73.6793 81.7531 73.6079C81.3121 73.5351 81.0126 73.1201 81.0848 72.6792C81.6381 69.2679 83.5038 67.436 85.0343 66.1191H83.1219C81.8522 66.1191 80.7567 65.3651 80.2554 64.2819C79.7048 64.8715 78.9203 65.2417 78.0508 65.2417C77.2183 65.2417 76.4618 64.9021 75.9149 64.3547C75.4013 64.9197 74.6629 65.2769 73.8395 65.2769C73.466 65.2769 73.1103 65.2023 72.7843 65.0698C72.0245 72.3448 72.9836 73.9424 73.7629 75.2387C74.2481 76.0446 74.7481 76.8777 74.7221 78.6201L74.687 80.9039H86.2222C86.3137 79.7331 86.6235 78.6551 87.1852 77.5524C87.9118 76.1238 88.6625 75.0581 89.3255 74.1171C90.6028 72.3072 91.6108 70.8767 92.0257 67.6368C92.2946 65.5419 92.0757 63.7702 91.4101 62.6489L91.41 62.6486Z" fill="#5772FF"/>
</svg>
