<svg width="24" height="24" viewBox="0 0 24 24" fill="none" xmlns="http://www.w3.org/2000/svg">
<circle cx="12" cy="12" r="12" fill="#4CACDD"/>
<g clip-path="url(#clip0_75_2070)">
<path d="M13.435 6.90168L13.9483 6.38835C14.555 5.78168 15.6108 5.78168 16.2175 6.38835L16.6316 6.80252C16.781 6.95067 16.8996 7.12696 16.9806 7.32119C17.0615 7.51542 17.1032 7.72376 17.1032 7.93418C17.1032 8.14461 17.0615 8.35294 16.9806 8.54718C16.8996 8.74141 16.781 8.91769 16.6316 9.06585L16.1183 9.57918L13.435 6.89585V6.90168ZM12.8166 7.52002L7.50246 12.8342C7.33329 13.0034 7.22829 13.225 7.21079 13.4642L7.05329 15.1734C7.03579 15.3892 7.11163 15.5992 7.26329 15.7567C7.40329 15.8967 7.58413 15.9725 7.77663 15.9725H7.84079L9.54996 15.815C9.78913 15.7917 10.0108 15.6867 10.18 15.5175L15.4941 10.2033L12.8108 7.52002H12.8166ZM18.2708 17.8334C18.2708 17.5942 18.0725 17.3959 17.8333 17.3959H6.16663C5.92746 17.3959 5.72913 17.5942 5.72913 17.8334C5.72913 18.0725 5.92746 18.2709 6.16663 18.2709H17.8333C18.0725 18.2709 18.2708 18.0725 18.2708 17.8334Z" fill="white"/>
</g>
<defs>
<clipPath id="clip0_75_2070">
<rect width="14" height="14" fill="white" transform="translate(5 5)"/>
</clipPath>
</defs>
</svg>
