<svg width="15" height="14" viewBox="0 0 15 14" fill="none" xmlns="http://www.w3.org/2000/svg">
<g id="add-user (3)">
<path id="Shape" fill-rule="evenodd" clip-rule="evenodd" d="M5.52632 7.40799C7.55602 7.40799 9.18297 5.75997 9.18297 3.70399C9.18297 1.64804 7.55602 0 5.52632 0C3.49663 0 1.86964 1.64804 1.86964 3.70399C1.86964 5.75997 3.49663 7.40799 5.52632 7.40799ZM5.52632 9.22173C2.54521 9.22173 0 9.69839 0 11.6026C0 13.5062 2.52973 14 5.52632 14C8.50669 14 11.0526 13.5233 11.0526 11.619C11.0526 9.71482 8.52291 9.22173 5.52632 9.22173ZM13.1879 5.22263H14.0744C14.4393 5.22263 14.7368 5.52433 14.7368 5.89437C14.7368 6.26434 14.4393 6.56607 14.0744 6.56607H13.1879V7.43356C13.1879 7.8036 12.8912 8.10526 12.5256 8.10526C12.1607 8.10526 11.8632 7.8036 11.8632 7.43356V6.56607H10.9782C10.6125 6.56607 10.3158 6.26434 10.3158 5.89437C10.3158 5.52433 10.6125 5.22263 10.9782 5.22263H11.8632V4.35593C11.8632 3.98591 12.1607 3.68421 12.5256 3.68421C12.8912 3.68421 13.1879 3.98591 13.1879 4.35593V5.22263Z" fill="#4CACDD"/>
</g>
</svg>
