<svg width="137" height="137" viewBox="0 0 137 137" fill="none" xmlns="http://www.w3.org/2000/svg">
    <circle cx="68.5" cy="68.5" r="67.5" fill="#00E0D3" fill-opacity="0.15" stroke="#00E0D3" stroke-width="0.5"/>
    <path d="M91.6317 56.467L69.0462 42.4075C68.7102 42.1975 68.2797 42.1975 67.9437 42.4075L45.3582 56.467C45.0537 56.656 44.8647 56.992 44.8647 57.3595V61.4335C44.8647 62.011 45.3372 62.4835 45.9147 62.4835H91.0752C91.6527 62.4835 92.1252 62.011 92.1252 61.4335V57.3595C92.1252 56.992 91.9362 56.656 91.6317 56.467ZM68.5002 58.5985C66.0957 58.5985 64.1427 56.6455 64.1427 54.241C64.1427 51.8365 66.0957 49.8835 68.5002 49.8835C70.9047 49.8835 72.8577 51.8365 72.8577 54.241C72.8577 56.6455 70.9047 58.5985 68.5002 58.5985ZM79.5567 64.5835H87.3267V80.596H79.5567V64.5835ZM64.6152 64.5835H72.3852V80.596H64.6152V64.5835ZM49.6632 64.5835H57.4332V80.596H49.6632V64.5835ZM94.7502 88.702V93.7C94.7502 94.2775 94.2777 94.75 93.7002 94.75H43.3002C42.7122 94.75 42.2502 94.2775 42.2502 93.7V88.702C42.2502 88.1245 42.7122 87.652 43.3002 87.652H45.8202V83.746C45.8202 83.1685 46.2927 82.696 46.8702 82.696H90.1302C90.7077 82.696 91.1802 83.1685 91.1802 83.746V87.652H93.7002C94.2777 87.652 94.7502 88.1245 94.7502 88.702Z" fill="#00E0D3"/>
</svg>
