<svg width="137" height="137" viewBox="0 0 137 137" fill="none" xmlns="http://www.w3.org/2000/svg">
<circle cx="68.5" cy="68.5" r="67.5" fill="#ADFF00" fill-opacity="0.15" stroke="#ADFF00" stroke-width="0.5"/>
<path d="M91.6967 82.188C91.9407 81.761 92.4388 81.5475 92.9065 81.7L95.2957 82.4828C95.4232 82.524 95.5575 82.5396 95.6911 82.5287C95.8246 82.5177 95.9547 82.4805 96.0737 82.419C96.1928 82.3576 96.2985 82.2732 96.3849 82.1708C96.4712 82.0683 96.5364 81.9498 96.5767 81.822L98.61 75.6H87.9147C85.3323 83.8553 77.626 89.8333 68.5167 89.8333C59.4073 89.8333 51.701 83.8553 49.1187 75.6H38.4233L40.4567 81.822C40.6295 82.3608 41.1988 82.6557 41.7377 82.4828L44.1268 81.7C44.5945 81.5475 45.0927 81.761 45.3367 82.188C46.4116 84.1635 47.7375 85.9917 49.2813 87.6272C49.4468 87.7989 49.5466 88.0233 49.5633 88.2612C49.5801 88.4991 49.5126 88.7353 49.3728 88.9285L47.8987 90.9618C47.8191 91.0697 47.7617 91.1922 47.7299 91.3224C47.698 91.4526 47.6924 91.5878 47.7132 91.7202C47.734 91.8526 47.7808 91.9796 47.8511 92.0937C47.9213 92.2079 48.0135 92.3069 48.1223 92.3852L53.0532 95.9638C53.5107 96.2993 54.1512 96.1977 54.4765 95.7402L55.9507 93.7068C56.2455 93.3103 56.7742 93.1883 57.2215 93.3917C59.2243 94.3473 61.3695 95.059 63.6062 95.4758C64.0942 95.5673 64.45 95.9842 64.45 96.4722V98.9833C64.45 99.5425 64.9075 100 65.4667 100H71.5667C72.1258 100 72.5833 99.5425 72.5833 98.9833V96.4722C72.5833 95.9842 72.9392 95.5673 73.4272 95.4758C75.6638 95.059 77.809 94.3473 79.8118 93.3917C80.2592 93.1883 80.7878 93.3103 81.0827 93.7068L82.5568 95.7402C82.8822 96.1977 83.5227 96.2993 83.9802 95.9638L88.911 92.3852C89.3685 92.0497 89.4702 91.4193 89.1347 90.9618L87.6605 88.9285C87.5207 88.7353 87.4533 88.4991 87.47 88.2612C87.4867 88.0233 87.5866 87.7989 87.752 87.6272C89.2872 86.0005 90.619 84.1705 91.6967 82.188ZM37 71.5333H100.033V73.5667H37V71.5333ZM39.0333 54.25H47.1667V69.5H39.0333V54.25ZM63.4333 50.1833H73.6V69.5H63.4333V50.1833ZM89.8667 55.2667H98V69.5H89.8667V55.2667ZM75.6333 50.1833V69.5H87.8333V39H75.6333V50.1833ZM82.75 43.0667H84.7833V45.1H82.75V43.0667ZM82.75 48.15H84.7833V50.1833H82.75V48.15ZM82.75 53.2333H84.7833V55.2667H82.75V53.2333ZM78.6833 43.0667H80.7167V45.1H78.6833V43.0667ZM78.6833 48.15H80.7167V50.1833H78.6833V48.15ZM78.6833 53.2333H80.7167V55.2667H78.6833V53.2333ZM49.2 69.5H61.4V45.1L55.3 40.0167L49.2 45.1V69.5ZM52.25 47.1333H58.35V49.1667H52.25V47.1333ZM52.25 52.2167H58.35V54.25H52.25V52.2167Z" fill="#ADFF00"/>
</svg>
