<svg width="137" height="137" viewBox="0 0 137 137" fill="none" xmlns="http://www.w3.org/2000/svg">
<circle cx="68.5" cy="68.5" r="67.5" fill="#00EBFA" fill-opacity="0.15" stroke="#00EBFA" stroke-width="0.5"/>
<path d="M43.2042 43.5911C40.9497 48.1147 39.1461 51.8673 39.2188 51.94C39.277 51.9982 40.6442 52.7982 42.2442 53.7145L45.1532 55.3872L49.2695 47.1692C52.6294 40.4639 53.3566 38.9076 53.1966 38.7622C53.0512 38.6312 50.1858 36.9731 47.4077 35.4022C47.3641 35.3877 45.4732 39.0676 43.2042 43.5911Z" fill="#00EBFA"/>
<path d="M87.6249 37.0458C86.025 37.9622 84.6577 38.7622 84.5995 38.8203C84.5268 38.8931 86.3304 42.6457 88.5994 47.1692L92.7157 55.3872L95.5956 53.7436C97.1811 52.8418 98.5483 52.0418 98.621 51.9691C98.7228 51.8673 97.3992 49.0892 94.6502 43.5911L90.5339 35.3732L87.6249 37.0458Z" fill="#00EBFA"/>
<path d="M63.5528 39.6927C62.971 39.8818 62.3164 40.2309 59.8874 41.6854C58.6365 42.4418 57.4729 43.0527 57.3129 43.0527C57.1384 43.0527 56.4838 42.7908 55.8438 42.4709C55.2039 42.1509 54.6512 41.8891 54.6075 41.8891C54.5493 41.8891 48.2804 54.3106 48.2804 54.456C48.2804 54.4851 48.6731 54.7469 49.1676 55.0524L50.0549 55.5905L50.724 55.2269C51.6258 54.7469 52.353 54.6451 53.2985 54.8342C54.2584 55.0378 55.1311 55.6487 55.582 56.4342C55.8002 56.8123 56.0184 57.016 56.222 57.016C57.2838 57.016 59.0438 58.2232 59.2765 59.1105C59.3638 59.4741 59.4074 59.4886 60.1201 59.4014C61.2837 59.2559 62.4037 59.6341 63.1891 60.4341C63.5528 60.7831 63.8727 61.234 63.9309 61.4377C64.0182 61.8013 64.0618 61.8158 64.7745 61.7286C65.9382 61.5831 67.0581 61.9613 67.8581 62.7613L68.4981 63.4013L69.0363 62.6885C69.3417 62.2813 69.6181 61.9613 69.6617 61.9613C69.7053 61.9758 70.5199 62.5576 71.4798 63.2849C73.9961 65.1612 75.7416 65.6557 76.6579 64.7394C76.8906 64.5067 77.0797 64.2158 77.0797 64.0849C77.0797 63.954 75.9888 63.1249 74.4616 62.1067C73.0216 61.1468 71.8435 60.3177 71.8435 60.2741C71.8435 60.1286 73.0216 58.4705 73.1234 58.4705C73.1816 58.4705 74.6943 59.4595 76.4979 60.6522C80.2214 63.1249 80.3814 63.1976 81.2541 62.3249C82.1414 61.4377 82.0396 61.2922 78.9997 58.8777L76.3524 56.7541L77.0361 55.9105C77.3997 55.4305 77.7342 55.0233 77.7488 54.9942C77.7779 54.9651 78.9269 55.8378 80.2942 56.9432C81.676 58.0487 82.9705 59.0377 83.1741 59.1395C83.785 59.4595 84.3232 59.3868 84.8032 58.9214C85.4577 58.2668 85.385 57.7287 84.5413 56.8851C83.7414 56.0851 74.2289 47.1544 73.8507 46.8635C73.6325 46.6889 73.3707 46.8635 71.6689 48.2889C69.589 50.0489 68.5854 50.6452 67.1599 50.9797C64.7018 51.5615 62.2001 50.7907 61.2546 49.1761C60.9201 48.6234 60.8619 48.3325 60.8619 47.4889C60.8619 46.7908 60.9492 46.3108 61.1383 45.9617C61.2837 45.6853 62.5928 44.2599 64.0327 42.8054L66.6654 40.1582L66.0836 39.9109C65.4291 39.6346 64.0764 39.5182 63.5528 39.6927Z" fill="#00EBFA"/>
<path d="M70.1416 40.9437C68.9926 41.2928 68.2799 41.8601 65.7054 44.4637C63 47.1981 62.8545 47.4163 63.3345 48.0999C63.5963 48.4781 64.7163 48.8708 65.5308 48.8708C66.3745 48.8708 67.8144 48.4054 68.469 47.9109C69.0071 47.5036 73.0943 44.1291 73.6761 43.6055C73.9961 43.3291 73.9961 43.3291 74.9852 44.4928C76.0179 45.6855 85.7049 54.878 86.0103 54.9507C86.1122 54.9652 86.8103 54.7616 87.5667 54.4707C88.323 54.1943 89.0212 53.918 89.123 53.8889C89.2394 53.8453 88.3376 51.9108 86.3885 47.9836C84.5558 44.3473 83.4068 42.1801 83.2904 42.2237C83.1886 42.2528 82.5486 42.471 81.865 42.6892L80.6141 43.0964L76.4106 41.9037C72.018 40.6674 71.3489 40.5656 70.1416 40.9437Z" fill="#00EBFA"/>
<path d="M50.5785 58.4416C49.3858 59.6343 49.1531 59.9397 49.1531 60.3179C49.1531 60.8997 49.6622 61.496 50.273 61.6124C50.7094 61.6997 50.7821 61.6269 52.193 59.9252C53.0075 58.9506 53.6621 58.0343 53.6621 57.8889C53.6621 57.5107 52.9784 57.0161 52.4548 57.0161C52.0766 57.0161 51.7566 57.2634 50.5785 58.4416Z" fill="#00EBFA"/>
<path d="M54.2438 61.1033C53.4438 62.0633 52.7893 62.9796 52.7893 63.1251C52.7893 63.5033 53.4729 63.9978 53.9965 63.9978C54.3747 63.9978 54.6947 63.7505 55.8729 62.5724C57.0947 61.3506 57.2983 61.0742 57.2983 60.667C57.2983 60.3324 57.1674 60.0706 56.8765 59.7652C56.1201 59.0088 55.8729 59.1397 54.2438 61.1033Z" fill="#00EBFA"/>
<path d="M58.7238 63.0959C57.502 64.3177 57.2983 64.5941 57.2983 65.0013C57.2983 65.6559 57.9674 66.325 58.6219 66.325C59.0292 66.325 59.3056 66.1213 60.5274 64.8995C61.7491 63.6777 61.9528 63.4014 61.9528 62.9941C61.9528 62.3396 61.2837 61.6705 60.6292 61.6705C60.2219 61.6705 59.9455 61.8742 58.7238 63.0959Z" fill="#00EBFA"/>
<path d="M63.3782 65.4233C62.1564 66.6451 61.9528 66.9215 61.9528 67.3287C61.9528 67.9833 62.6218 68.6523 63.2764 68.6523C63.6836 68.6523 63.96 68.4487 65.1818 67.2269C66.4036 66.0051 66.6072 65.7288 66.6072 65.3215C66.6072 64.667 65.9381 63.9979 65.2836 63.9979C64.8763 63.9979 64.6 64.2015 63.3782 65.4233Z" fill="#00EBFA"/>
<path d="M68.8327 65.263C68.8327 65.8158 68.789 66.4121 68.7599 66.6012C68.7309 66.8921 68.8036 66.9794 69.2836 67.1394C69.589 67.2557 70.2581 67.3866 70.7672 67.4303C71.5526 67.5175 71.7562 67.4885 71.989 67.2703C72.3962 66.8921 72.3526 66.6885 71.7562 66.3394C71.4799 66.1648 70.7235 65.6412 70.0981 65.1612C69.4727 64.6812 68.9345 64.2885 68.9054 64.2885C68.8763 64.2885 68.8472 64.7249 68.8327 65.263Z" fill="#00EBFA"/>
<path d="M39.9169 75.4448C40.3387 79.852 41.5605 83.9537 43.5241 87.4591L44.0768 88.4336H48.353C50.7093 88.4336 52.6438 88.4045 52.6438 88.3609C52.6438 88.3172 52.5129 88.0118 52.3384 87.6772C51.4221 85.8737 50.3457 82.5283 49.8221 79.852C49.5457 78.4411 49.153 75.3866 49.153 74.5721C49.153 74.5139 47.0585 74.4703 44.484 74.4703H39.8151L39.9169 75.4448Z" fill="#00EBFA"/>
<path d="M51.553 75.4448C51.9311 79.7938 52.862 83.3283 54.622 87.0809L55.2474 88.4336H61.5018H67.7708V81.4519V74.4703H59.6255H51.4657L51.553 75.4448Z" fill="#00EBFA"/>
<path d="M70.098 81.4519V88.4336H76.367H82.6214L83.2468 87.0809C84.9922 83.3719 85.8649 80.012 86.3158 75.3721L86.4031 74.4703H78.2433H70.098V81.4519Z" fill="#00EBFA"/>
<path d="M88.6431 75.2993C88.3522 78.1065 88.2212 79.081 87.9158 80.521C87.4794 82.5136 86.694 85.0154 85.9231 86.7608C85.6031 87.4735 85.3122 88.1571 85.2686 88.259C85.2104 88.4044 86.0686 88.4335 89.5158 88.4044L93.8357 88.3608L94.6211 86.9063C96.4392 83.5173 97.5592 79.6483 97.9519 75.5175L98.0392 74.4702H93.3848H88.7303L88.6431 75.2993Z" fill="#00EBFA"/>
<path d="M45.8077 90.8481C45.8077 91.0517 47.8004 93.2917 48.964 94.4116C52.4112 97.6552 56.8184 100.157 61.1674 101.321C62.8546 101.771 64.6436 102.121 64.4836 101.961C64.4109 101.902 63.6837 101.35 62.8546 100.724C59.8729 98.4988 56.862 95.2843 54.8112 92.1426L53.8948 90.7608H49.8513C47.6259 90.7608 45.8077 90.8044 45.8077 90.8481Z" fill="#00EBFA"/>
<path d="M56.9492 91.1534C58.5201 93.5824 61.2545 96.5205 63.8436 98.5569C64.9199 99.4005 67.5526 101.233 67.6835 101.233C67.7271 101.233 67.7707 98.8768 67.7707 95.9969V90.7607H62.2291H56.6874L56.9492 91.1534Z" fill="#00EBFA"/>
<path d="M70.098 95.9969C70.098 98.8768 70.1271 101.233 70.1853 101.233C70.5053 101.233 74.4034 98.3241 75.8579 97.0005C77.6178 95.4006 79.8142 92.8697 80.9196 91.1534L81.1814 90.7607H75.6397H70.098V95.9969Z" fill="#00EBFA"/>
<path d="M82.9414 92.3172C80.8906 95.4153 77.967 98.5134 75.0434 100.71C74.1998 101.335 73.458 101.902 73.3853 101.961C73.3271 102.019 73.7344 101.99 74.2871 101.888C79.8579 100.826 84.8032 98.2952 88.9195 94.3826C90.0685 93.2917 92.0612 91.0518 92.0612 90.8481C92.0612 90.8045 90.2431 90.7608 88.0177 90.7608H83.9741L82.9414 92.3172Z" fill="#00EBFA"/>
</svg>
