<svg width="137" height="137" viewBox="0 0 137 137" fill="none" xmlns="http://www.w3.org/2000/svg">
    <circle cx="68.5" cy="68.5" r="67.5" fill="#FF4C48" fill-opacity="0.15" stroke="#FF4C48" stroke-width="0.5"/>
    <g clip-path="url(#clip0_109_1654)">
        <path d="M68.4713 41.2276C70.3359 41.2276 71.8475 39.7161 71.8475 37.8515C71.8475 35.9869 70.3359 34.4753 68.4713 34.4753C66.6067 34.4753 65.0952 35.9869 65.0952 37.8515C65.0952 39.7161 66.6067 41.2276 68.4713 41.2276Z" fill="#FF4C48"/>
        <path d="M50.3541 47.8442C51.7824 46.6457 51.9687 44.5161 50.7702 43.0878C49.5717 41.6594 47.4421 41.4731 46.0138 42.6716C44.5854 43.8702 44.3991 45.9997 45.5976 47.4281C46.7962 48.8564 48.9257 49.0428 50.3541 47.8442Z" fill="#FF4C48"/>
        <path d="M40.7079 64.5648C41.0323 62.7286 39.8068 60.9771 37.9707 60.6527C36.1345 60.3283 34.383 61.5538 34.0586 63.3899C33.7342 65.2261 34.9597 66.9776 36.7958 67.302C38.632 67.6264 40.3835 66.4009 40.7079 64.5648Z" fill="#FF4C48"/>
        <path d="M42.8384 88.185C44.4532 87.2527 45.0065 85.1879 44.0742 83.5731C43.1419 81.9583 41.077 81.405 39.4623 82.3373C37.8475 83.2696 37.2942 85.3344 38.2265 86.9492C39.1588 88.564 41.2236 89.1173 42.8384 88.185Z" fill="#FF4C48"/>
        <path d="M60.8941 100.266C61.5319 98.5139 60.6285 96.5765 58.8763 95.9388C57.1242 95.301 55.1868 96.2045 54.5491 97.9566C53.9113 99.7088 54.8147 101.646 56.5669 102.284C58.319 102.922 60.2564 102.018 60.8941 100.266Z" fill="#FF4C48"/>
        <path d="M80.478 102.322C82.2301 101.684 83.1336 99.7466 82.4958 97.9945C81.8581 96.2423 79.9207 95.3389 78.1686 95.9766C76.4164 96.6144 75.513 98.5517 76.1507 100.304C76.7885 102.056 78.7259 102.959 80.478 102.322Z" fill="#FF4C48"/>
        <path d="M98.8007 86.9426C99.7329 85.3279 99.1795 83.2632 97.5647 82.3309C95.95 81.3986 93.8852 81.9518 92.953 83.5664C92.0208 85.1811 92.5741 87.2458 94.1889 88.1781C95.8037 89.1104 97.8684 88.5572 98.8007 86.9426Z" fill="#FF4C48"/>
        <path d="M90.9956 85.3056L93.4817 80.9993C93.4942 80.9795 93.5102 80.9636 93.5218 80.9432C93.5459 80.9019 93.5653 80.8583 93.5872 80.8164L93.5945 80.8035C93.597 80.7994 93.5979 80.7951 93.6001 80.791C93.9261 80.1436 93.9859 79.3813 93.8156 78.6692C93.5384 77.506 92.7799 76.3948 91.5913 75.2225C90.8672 74.5147 89.9712 73.7875 88.8954 73.0443C90.8516 72.5338 92.3843 71.9112 93.5387 71.1928C94.3571 70.6782 94.9953 70.1116 95.4316 69.4446C95.8366 68.832 96.0411 68.0916 95.9546 67.3697C95.954 67.3675 95.9543 67.3653 95.954 67.3631L95.9527 67.3565C95.9465 67.3067 95.943 67.2566 95.9336 67.2068C95.9293 67.1827 95.9199 67.1611 95.9139 67.1373L95.0505 62.2416C95.0476 62.2184 95.0495 62.1952 95.0451 62.1714C95.037 62.1235 95.0238 62.0765 95.0129 62.0292L95.0107 62.0177C95.0101 62.0139 95.0085 62.0111 95.0075 62.0073C94.8416 61.3005 94.3971 60.6772 93.808 60.2406C92.8481 59.5278 91.5528 59.1639 89.8885 59.0302C88.8838 58.9537 87.736 58.9719 86.4419 59.0928C87.6076 57.4492 88.3786 55.991 88.8002 54.7016C89.0962 53.7815 89.2211 52.9371 89.1265 52.1457C89.0429 51.416 88.7238 50.7173 88.1932 50.2205L88.1885 50.2158L88.1832 50.2111C88.1463 50.1773 88.1112 50.141 88.0723 50.109C88.0532 50.0931 88.0323 50.0827 88.0128 50.0683L84.2036 46.872C84.1866 46.856 84.1735 46.8378 84.1556 46.8228C84.1193 46.7918 84.0802 46.7652 84.0426 46.7367L84.0307 46.7269C84.0269 46.7238 84.0228 46.7219 84.0191 46.7191C83.4381 46.286 82.6978 46.0946 81.9671 46.1391C80.7732 46.2102 79.5474 46.7642 78.1866 47.731C77.3582 48.3248 76.4813 49.0865 75.5562 50.0254C75.3939 47.9963 75.0457 46.368 74.5361 45.1003C74.1716 44.2049 73.7247 43.4776 73.1434 42.9327C72.611 42.4281 71.9191 42.0984 71.1944 42.0576C71.191 42.0576 71.1878 42.0567 71.1844 42.0567H71.1734C71.1246 42.0542 71.076 42.0495 71.0269 42.0498C71.0031 42.0498 70.9808 42.0551 70.957 42.0567H65.9836C65.9601 42.0551 65.9379 42.0498 65.9138 42.0498C65.8649 42.0495 65.8167 42.0545 65.7681 42.0567H65.7575C65.7537 42.0567 65.7503 42.058 65.7465 42.058C65.0218 42.099 64.3306 42.4288 63.7985 42.9327C62.9301 43.7542 62.3466 44.9665 61.926 46.5819C61.6764 47.5578 61.495 48.6909 61.3892 49.986C59.9783 48.56 58.6804 47.5522 57.4881 46.9155C56.6331 46.4639 55.8235 46.1939 55.0277 46.1504C54.2952 46.1059 53.5536 46.2985 52.9723 46.7329L52.9641 46.7382L52.956 46.7454C52.9169 46.7752 52.8765 46.8024 52.8392 46.8341C52.8207 46.8497 52.8069 46.8682 52.79 46.8845L48.9804 50.0812C48.9613 50.0953 48.9406 50.1053 48.9222 50.1206C48.8843 50.152 48.8501 50.187 48.8144 50.2199L48.806 50.2271C48.8031 50.2293 48.8013 50.2324 48.7988 50.2343C48.2701 50.7317 47.9522 51.4288 47.8686 52.1573C47.7314 53.3449 48.0637 54.6484 48.7797 56.1567C49.2153 57.064 49.8044 58.048 50.5551 59.1069C48.547 58.9187 46.8968 58.9807 45.5689 59.26C44.6234 59.4633 43.8297 59.7774 43.1924 60.2554C42.6027 60.6922 42.158 61.3164 41.992 62.0227C41.9913 62.0264 41.9898 62.0292 41.9892 62.0327L41.9873 62.0436C41.9763 62.0909 41.9632 62.1379 41.9547 62.1861C41.9503 62.2096 41.9522 62.2328 41.9494 62.2566L41.0859 67.1549C41.0803 67.1777 41.0709 67.1987 41.0668 67.2219C41.0584 67.2692 41.0546 67.3174 41.0483 67.365L41.0461 67.3782L41.0452 67.3904C40.96 68.1107 41.1645 68.8479 41.5689 69.4593C42.2272 70.4574 43.3196 71.2419 44.8376 71.9372C45.7602 72.3547 46.8514 72.7321 48.117 73.0625C46.4564 74.2097 45.2309 75.3181 44.3929 76.3867C43.7997 77.1502 43.3935 77.9009 43.2121 78.6767C43.0415 79.3901 43.1022 80.1546 43.4289 80.8026C43.4304 80.8057 43.4314 80.8088 43.4329 80.8113L43.4383 80.8201C43.4605 80.864 43.4809 80.9084 43.5056 80.951C43.5175 80.9717 43.5338 80.9886 43.5469 81.0087L46.0343 85.3165C46.0446 85.3369 46.0509 85.3588 46.0625 85.3789C46.0859 85.4205 46.1138 85.4587 46.1395 85.4988L46.147 85.512C46.1495 85.5163 46.153 85.5192 46.1552 85.5232C46.5532 86.1289 47.1827 86.5618 47.8849 86.77C49.0305 87.1114 50.3719 87.0106 51.9817 86.5674C52.9532 86.2952 54.0265 85.885 55.2031 85.3278C54.6729 87.2646 54.4427 88.8997 54.4875 90.252C54.5235 91.2182 54.6951 92.0544 55.055 92.765C55.3829 93.4215 55.9203 93.968 56.5874 94.2542L56.5962 94.2586L56.6059 94.2624C56.6513 94.2815 56.6951 94.3028 56.7418 94.3194C56.7643 94.3275 56.7875 94.33 56.8104 94.3369L61.4841 96.0378C61.5054 96.0469 61.5242 96.0598 61.5464 96.0679C61.5915 96.0848 61.6378 96.0964 61.6836 96.1105L61.6967 96.1155C61.7008 96.1171 61.7049 96.1174 61.7093 96.1187C62.4036 96.3272 63.1646 96.2543 63.837 95.9624C64.9341 95.4873 65.8969 94.5477 66.8449 93.1738C67.413 92.3426 67.9708 91.34 68.5129 90.1596C69.3554 91.9977 70.2351 93.3993 71.1431 94.4115C71.7917 95.1284 72.4606 95.6586 73.1932 95.9721C73.8662 96.2643 74.6304 96.3373 75.326 96.1274L75.3338 96.1252L75.3419 96.1221C75.3892 96.1074 75.4375 96.0955 75.4841 96.0779C75.507 96.0698 75.5267 96.0566 75.5486 96.0466L80.222 94.3454C80.2439 94.3388 80.2665 94.3366 80.2884 94.3285C80.3332 94.3125 80.3755 94.2918 80.4193 94.2734L80.434 94.268C80.4387 94.2665 80.4422 94.2636 80.4469 94.2618C81.1124 93.9752 81.648 93.4299 81.9752 92.7748C82.5105 91.7055 82.6439 90.3667 82.487 88.7049C82.388 87.7021 82.1703 86.5749 81.8268 85.3215C83.6508 86.1859 85.2236 86.6933 86.5684 86.8847C87.5261 87.0168 88.3793 86.993 89.1422 86.7622C89.8459 86.5533 90.4786 86.1177 90.8763 85.5091L90.8804 85.5035L90.8841 85.4969C90.9114 85.4546 90.9408 85.4142 90.9656 85.3707C90.9781 85.35 90.9847 85.3272 90.9956 85.3056ZM85.6552 84.3829C84.2963 84.0037 82.5618 83.2605 80.5067 82.0726C80.5023 82.0707 80.4835 82.0588 80.4485 82.04C80.4372 82.0337 80.425 82.0309 80.4137 82.0249C80.3758 82.0064 80.3369 81.99 80.2972 81.9758C80.2668 81.9645 80.237 81.9529 80.206 81.9445C80.1689 81.9346 80.1313 81.9267 80.0933 81.921C80.0598 81.9153 80.0263 81.9094 79.9928 81.9069C79.9555 81.9037 79.9182 81.9047 79.881 81.9056C79.8462 81.9062 79.8114 81.9069 79.777 81.9113C79.7413 81.9153 79.7056 81.9228 79.6699 81.9304C79.6333 81.9378 79.5971 81.9472 79.5615 81.9582C79.5477 81.9626 79.5339 81.9639 79.5202 81.9686L79.4948 81.9773C79.4769 81.9842 79.4619 81.9952 79.445 82.003C79.4132 82.0174 79.382 82.0333 79.3517 82.0506C79.2886 82.0853 79.2295 82.1267 79.1753 82.174C79.144 82.2006 79.1143 82.2276 79.0864 82.257C79.0652 82.2802 79.045 82.3043 79.0256 82.329C78.999 82.3622 78.9742 82.3968 78.9514 82.4327C78.9442 82.4443 78.9345 82.4534 78.9279 82.4656C78.9235 82.4725 78.9198 82.4809 78.9151 82.4885C78.9082 82.5013 78.9051 82.5148 78.8985 82.5276C78.8793 82.5667 78.8623 82.6068 78.8478 82.6479C78.8369 82.6773 78.827 82.707 78.8183 82.7371C78.808 82.7772 78.7998 82.8177 78.7939 82.8586C78.7886 82.89 78.7846 82.9215 78.782 82.9532C78.7797 82.9942 78.7796 83.0353 78.7817 83.0763C78.7829 83.1083 78.7845 83.1402 78.7882 83.1721C78.7933 83.2116 78.8014 83.2504 78.8108 83.2899C78.8186 83.3237 78.8277 83.3576 78.8387 83.3904C78.8443 83.4077 78.8465 83.4249 78.8531 83.4418C78.8546 83.4446 78.8562 83.449 78.8578 83.454C79.9442 86.4268 80.342 88.7062 80.2859 90.181C80.2787 90.4064 80.2581 90.6313 80.2242 90.8543L77.8117 84.2263L70.8909 86.7456L73.3012 93.3679C72.9241 93.036 72.4957 92.5593 72.0532 91.9063C71.2558 90.7422 70.4049 89.0579 69.594 86.8267C69.5918 86.8226 69.5853 86.8013 69.5702 86.7647C69.5668 86.7563 69.5615 86.7491 69.558 86.7406C69.5355 86.6858 69.5086 86.6329 69.4775 86.5824C69.4716 86.573 69.4666 86.563 69.4603 86.5539C69.3237 86.3392 69.1182 86.1773 68.8775 86.0948C68.5934 85.999 68.2829 86.0199 68.0142 86.1529C67.7455 86.2859 67.5407 86.5202 67.4446 86.8042C67.444 86.8073 67.4421 86.8114 67.4403 86.8164C66.3616 89.792 65.2013 91.7939 64.21 92.8875C64.0597 93.0558 63.8992 93.2149 63.7296 93.3639L66.1421 86.7359L59.2213 84.2172L56.811 90.8396C56.7358 90.3429 56.7136 89.7021 56.7944 88.9175C56.9316 87.5135 57.3625 85.6761 58.1756 83.4459C58.1765 83.4412 58.185 83.4205 58.1972 83.3829C58.1994 83.3763 58.1997 83.3701 58.2016 83.3638C58.2138 83.3237 58.2222 83.2836 58.2297 83.2426C58.2387 83.2007 58.2453 83.1584 58.2495 83.1158C58.2501 83.1076 58.2498 83.0992 58.2504 83.0913C58.2665 82.8483 58.2034 82.6065 58.0706 82.4024C57.9377 82.1982 57.7423 82.0426 57.5135 81.9589C57.5057 81.9557 57.4969 81.9532 57.4884 81.9501C57.3103 81.8902 57.1201 81.8756 56.935 81.9079C56.7498 81.9401 56.5757 82.018 56.4283 82.1346C53.7346 83.6833 51.5914 84.4565 50.1464 84.6545C49.899 84.6895 49.6754 84.7061 49.4724 84.7105L55.5808 81.184L51.8981 74.806L45.7953 78.3293C46.0568 77.9006 46.4521 77.396 47.0177 76.8467C48.0255 75.8596 49.5366 74.729 51.5927 73.5429C51.5965 73.5401 51.6162 73.5298 51.65 73.5088C51.9023 73.3554 52.0845 73.1095 52.1577 72.8235C52.2309 72.5375 52.1893 72.2342 52.0418 71.9785L52.028 71.9557C51.8972 71.7428 51.699 71.5796 51.4649 71.4922C51.4054 71.4692 51.3442 71.4512 51.2817 71.4383C51.2588 71.4333 51.2372 71.4245 51.2137 71.4208C51.2109 71.4208 51.2065 71.4195 51.2009 71.4186C48.0838 70.873 45.9099 70.0778 44.6616 69.2914C44.4698 69.1724 44.2853 69.0421 44.1091 68.9012L51.055 70.126L52.3337 62.873L45.3938 61.6493C45.8702 61.4887 46.4968 61.3562 47.2833 61.2992C48.6901 61.1905 50.5742 61.2961 52.9118 61.7095C52.9165 61.7098 52.9385 61.7145 52.9776 61.7198L52.9858 61.7201C53.0521 61.7298 53.1185 61.733 53.1856 61.7308C53.1946 61.7305 53.204 61.7308 53.2131 61.7301C53.2745 61.7267 53.3356 61.7173 53.396 61.7035C53.4076 61.701 53.4195 61.6991 53.4308 61.6963C53.4859 61.6819 53.5392 61.6625 53.5921 61.6393C53.6071 61.6327 53.6225 61.6274 53.6372 61.6202C53.6825 61.5978 53.7263 61.5723 53.7681 61.5438C53.7885 61.5303 53.8091 61.5175 53.8285 61.5025C53.8429 61.4915 53.8589 61.4837 53.873 61.4721L53.8934 61.4545C53.9097 61.4401 53.9216 61.4229 53.9369 61.4082C53.9883 61.3572 54.035 61.3017 54.0766 61.2425C54.0957 61.215 54.112 61.1858 54.1289 61.1567C54.166 61.0924 54.1959 61.0243 54.2181 60.9534C54.2294 60.9184 54.2398 60.8833 54.2479 60.8476C54.2517 60.831 54.2582 60.816 54.2614 60.7994C54.2632 60.7909 54.2642 60.7818 54.2657 60.773C54.2686 60.7552 54.2667 60.7383 54.2686 60.7204C54.272 60.6872 54.2733 60.655 54.2736 60.6218C54.2749 60.5782 54.2735 60.5346 54.2695 60.4912C54.2667 60.4655 54.2623 60.4408 54.2579 60.4154C54.2503 60.367 54.2394 60.3192 54.2253 60.2723C54.2188 60.2519 54.2109 60.2322 54.2037 60.2121C54.1854 60.162 54.1635 60.1132 54.1383 60.0662C54.1298 60.0502 54.1201 60.0352 54.1107 60.0198C54.0803 59.9696 54.046 59.9217 54.0083 59.8767C54.0036 59.8711 54.0008 59.8648 53.9961 59.8595L53.9876 59.8495C51.9507 57.4279 50.7966 55.4213 50.3456 54.0167C50.2752 53.8023 50.2176 53.5839 50.173 53.3627L54.7067 58.7655L60.3488 54.0314L55.8182 48.6327C56.2861 48.8159 56.852 49.1172 57.4909 49.5791C58.6385 50.4003 60.014 51.6919 61.5392 53.5112C61.5423 53.5143 61.5564 53.5319 61.5827 53.5613C61.5855 53.5644 61.5887 53.5663 61.5912 53.5691C61.6197 53.5995 61.6501 53.6268 61.6817 53.6537C61.8832 53.8352 62.1433 53.9379 62.4144 53.9429C62.6855 53.948 62.9493 53.8551 63.1574 53.6813L63.1775 53.6637C63.3218 53.5366 63.4311 53.3745 63.495 53.1931C63.5589 53.0117 63.5752 52.8169 63.5423 52.6274C63.5498 49.5309 63.951 47.2948 64.501 45.9477C64.5943 45.7163 64.6914 45.514 64.7891 45.3364V52.389H72.1543V45.3424C72.3952 45.7833 72.6348 46.3781 72.8271 47.1425C73.1785 48.509 73.4018 50.3828 73.4008 52.7567C73.4011 52.7611 73.4005 52.7837 73.4018 52.8231C73.4078 53.0671 73.4929 53.3025 73.6442 53.494C73.7955 53.6855 74.0048 53.8228 74.2408 53.8851C74.2502 53.888 74.2602 53.8914 74.2699 53.8939C74.3015 53.9014 74.3338 53.9064 74.3667 53.9111C74.5663 53.948 74.7723 53.9302 74.9626 53.8597C75.153 53.7891 75.3208 53.6684 75.4481 53.5103C75.4497 53.5077 75.4528 53.5043 75.4563 53.5002C77.4876 51.073 79.2627 49.5888 80.5681 48.9001C80.7671 48.7936 80.9723 48.6991 81.1826 48.617L76.6482 54.0207L82.2903 58.7542L86.8202 53.3559C86.7213 53.8485 86.5224 54.4583 86.1782 55.1676C85.569 56.4401 84.5358 58.0192 83.0091 59.8366C83.0066 59.841 82.9915 59.8573 82.9671 59.8883C82.9602 59.8971 82.9558 59.9071 82.9486 59.9165C82.9254 59.9478 82.9051 59.9804 82.885 60.0142C82.8647 60.0486 82.8443 60.0828 82.8274 60.1185C82.8183 60.1385 82.8108 60.1598 82.8027 60.1805C82.7825 60.2303 82.7658 60.2815 82.7529 60.3336C82.7507 60.343 82.7494 60.3528 82.7476 60.3621C82.7336 60.4271 82.7255 60.4931 82.7234 60.5595V60.5604C82.7172 60.7309 82.7499 60.9006 82.819 61.0566C82.8881 61.2126 82.9917 61.3508 83.1221 61.4608C83.1287 61.4661 83.1359 61.4715 83.1425 61.4774C83.272 61.5803 83.4227 61.6533 83.5837 61.6912C83.7447 61.7292 83.9121 61.7311 84.0739 61.6969H84.0751C84.0793 61.6957 84.0836 61.6949 84.088 61.6944C87.2042 61.1407 89.5183 61.1448 90.9609 61.4561C91.2052 61.5081 91.4216 61.5689 91.6135 61.6343L84.6668 62.8589L85.9461 70.1116L92.886 68.888C92.4936 69.2015 91.9499 69.5407 91.2299 69.8633C89.9452 70.4461 88.1387 70.992 85.8008 71.4029C85.7961 71.4045 85.7742 71.4076 85.7353 71.4154C85.4458 71.4734 85.1905 71.6423 85.0238 71.886C84.8572 72.1298 84.7926 72.4291 84.8437 72.7199L84.849 72.7455C84.8559 72.7797 84.8694 72.8107 84.8794 72.8439L84.886 72.8658C84.9042 72.9219 84.9248 72.9757 84.9505 73.0268C84.9618 73.0506 84.9749 73.0728 84.9878 73.096C85.0309 73.1705 85.0825 73.2398 85.1415 73.3024C85.1538 73.3152 85.1654 73.3281 85.1779 73.3403C85.2242 73.386 85.2753 73.4264 85.3301 73.4643C85.3614 73.4853 85.3893 73.5097 85.4231 73.5279C85.427 73.5298 85.4308 73.532 85.4344 73.5345C88.1776 75.1135 89.9474 76.604 90.8525 77.7697C91.0063 77.9664 91.1331 78.1521 91.238 78.3256L85.1293 74.7985L81.4472 81.1768L87.5503 84.7005C87.0489 84.6883 86.414 84.5984 85.6552 84.3829Z" fill="#FF4C48"/>
        <path d="M100.219 67.2546C102.055 66.9302 103.28 65.1788 102.956 63.3429C102.632 61.5069 100.88 60.2815 99.044 60.6059C97.2078 60.9304 95.9823 62.6817 96.3067 64.5177C96.6311 66.3537 98.3825 67.5791 100.219 67.2546Z" fill="#FF4C48"/>
        <path d="M91.4063 47.421C92.6055 45.9929 92.4201 43.8633 90.9923 42.6644C89.5645 41.4654 87.4349 41.6512 86.2358 43.0793C85.0366 44.5074 85.222 46.637 86.6498 47.8359C88.0776 49.0348 90.2072 48.849 91.4063 47.421Z" fill="#FF4C48"/>
    </g>
    <defs>
        <clipPath id="clip0_109_1654">
            <rect width="69" height="69" fill="white" transform="translate(34.0004 34)"/>
        </clipPath>
    </defs>
</svg>
