<svg width="26" height="26" viewBox="0 0 26 26" fill="none" xmlns="http://www.w3.org/2000/svg">
<g id="add (8)">
<path id="Shape" fill-rule="evenodd" clip-rule="evenodd" d="M0 13C0 5.8203 5.8203 0 13 0C20.1762 0.00846596 25.9915 5.82381 26 13C26 20.1797 20.1797 26 13 26C5.8203 26 0 20.1797 0 13ZM14.1818 14.1818H18.9091C19.5618 14.1818 20.0909 13.6527 20.0909 13C20.0909 12.3473 19.5618 11.8182 18.9091 11.8182H14.1818V7.09091C14.1818 6.43821 13.6527 5.90909 13 5.90909C12.3473 5.90909 11.8182 6.43821 11.8182 7.09091V11.8182H7.09091C6.43821 11.8182 5.90909 12.3473 5.90909 13C5.90909 13.6527 6.43821 14.1818 7.09091 14.1818H11.8182V18.9091C11.8182 19.5618 12.3473 20.0909 13 20.0909C13.6527 20.0909 14.1818 19.5618 14.1818 18.9091V14.1818Z" fill="#4CACDD"/>
</g>
</svg>
