<svg width="85" height="28" viewBox="0 0 85 28" fill="none" xmlns="http://www.w3.org/2000/svg">
<rect width="85" height="28" rx="5" fill="#3393C3"/>
<path d="M20.8807 18V10.7273H25.2415V11.5085H21.7614V13.9659H24.9148V14.7472H21.7614V18H20.8807ZM28.4517 18.1136C27.9593 18.1136 27.5272 17.9964 27.1555 17.7621C26.7862 17.5277 26.4974 17.1998 26.2891 16.7784C26.0831 16.357 25.9801 15.8646 25.9801 15.3011C25.9801 14.733 26.0831 14.237 26.2891 13.8132C26.4974 13.3894 26.7862 13.0604 27.1555 12.826C27.5272 12.5916 27.9593 12.4744 28.4517 12.4744C28.9441 12.4744 29.375 12.5916 29.7443 12.826C30.116 13.0604 30.4048 13.3894 30.6108 13.8132C30.8191 14.237 30.9233 14.733 30.9233 15.3011C30.9233 15.8646 30.8191 16.357 30.6108 16.7784C30.4048 17.1998 30.116 17.5277 29.7443 17.7621C29.375 17.9964 28.9441 18.1136 28.4517 18.1136ZM28.4517 17.3608C28.8258 17.3608 29.1335 17.2649 29.375 17.0732C29.6165 16.8814 29.7952 16.6293 29.9112 16.3168C30.0272 16.0043 30.0852 15.6657 30.0852 15.3011C30.0852 14.9366 30.0272 14.5968 29.9112 14.282C29.7952 13.9671 29.6165 13.7126 29.375 13.5185C29.1335 13.3243 28.8258 13.2273 28.4517 13.2273C28.0777 13.2273 27.7699 13.3243 27.5284 13.5185C27.2869 13.7126 27.1082 13.9671 26.9922 14.282C26.8762 14.5968 26.8182 14.9366 26.8182 15.3011C26.8182 15.6657 26.8762 16.0043 26.9922 16.3168C27.1082 16.6293 27.2869 16.8814 27.5284 17.0732C27.7699 17.2649 28.0777 17.3608 28.4517 17.3608ZM33.0407 10.7273V18H32.2026V10.7273H33.0407ZM35.4137 10.7273V18H34.5756V10.7273H35.4137ZM39.1646 18.1136C38.6722 18.1136 38.2401 17.9964 37.8684 17.7621C37.4991 17.5277 37.2103 17.1998 37.002 16.7784C36.796 16.357 36.693 15.8646 36.693 15.3011C36.693 14.733 36.796 14.237 37.002 13.8132C37.2103 13.3894 37.4991 13.0604 37.8684 12.826C38.2401 12.5916 38.6722 12.4744 39.1646 12.4744C39.657 12.4744 40.0879 12.5916 40.4572 12.826C40.8289 13.0604 41.1177 13.3894 41.3237 13.8132C41.532 14.237 41.6362 14.733 41.6362 15.3011C41.6362 15.8646 41.532 16.357 41.3237 16.7784C41.1177 17.1998 40.8289 17.5277 40.4572 17.7621C40.0879 17.9964 39.657 18.1136 39.1646 18.1136ZM39.1646 17.3608C39.5386 17.3608 39.8464 17.2649 40.0879 17.0732C40.3294 16.8814 40.5081 16.6293 40.6241 16.3168C40.7401 16.0043 40.7981 15.6657 40.7981 15.3011C40.7981 14.9366 40.7401 14.5968 40.6241 14.282C40.5081 13.9671 40.3294 13.7126 40.0879 13.5185C39.8464 13.3243 39.5386 13.2273 39.1646 13.2273C38.7905 13.2273 38.4828 13.3243 38.2413 13.5185C37.9998 13.7126 37.8211 13.9671 37.7051 14.282C37.5891 14.5968 37.5311 14.9366 37.5311 15.3011C37.5311 15.6657 37.5891 16.0043 37.7051 16.3168C37.8211 16.6293 37.9998 16.8814 38.2413 17.0732C38.4828 17.2649 38.7905 17.3608 39.1646 17.3608ZM43.9657 18L42.3038 12.5455H43.1845L44.3635 16.7216H44.4203L45.585 12.5455H46.4799L47.6305 16.7074H47.6873L48.8663 12.5455H49.747L48.085 18H47.2612L46.068 13.8097H45.9828L44.7896 18H43.9657ZM50.8549 18V12.5455H51.693V18H50.8549ZM51.2811 11.6364C51.1177 11.6364 50.9769 11.5807 50.8585 11.4695C50.7425 11.3582 50.6845 11.2244 50.6845 11.0682C50.6845 10.9119 50.7425 10.7782 50.8585 10.6669C50.9769 10.5556 51.1177 10.5 51.2811 10.5C51.4444 10.5 51.5841 10.5556 51.7001 10.6669C51.8185 10.7782 51.8777 10.9119 51.8777 11.0682C51.8777 11.2244 51.8185 11.3582 51.7001 11.4695C51.5841 11.5807 51.4444 11.6364 51.2811 11.6364ZM54.0661 14.7188V18H53.228V12.5455H54.0376V13.3977H54.1087C54.2365 13.1207 54.4306 12.8982 54.6911 12.7301C54.9515 12.5597 55.2876 12.4744 55.6996 12.4744C56.0689 12.4744 56.392 12.5502 56.669 12.7017C56.946 12.8509 57.1615 13.0781 57.3153 13.3835C57.4692 13.6866 57.5462 14.0701 57.5462 14.5341V18H56.7081V14.5909C56.7081 14.1624 56.5968 13.8286 56.3743 13.5895C56.1518 13.348 55.8464 13.2273 55.4581 13.2273C55.1906 13.2273 54.9515 13.2853 54.7408 13.4013C54.5324 13.5173 54.3679 13.6866 54.2472 13.9091C54.1264 14.1316 54.0661 14.4015 54.0661 14.7188ZM61.2793 20.1591C60.8745 20.1591 60.5265 20.107 60.2353 20.0028C59.9441 19.901 59.7014 19.7661 59.5073 19.598C59.3155 19.4323 59.1628 19.2547 59.0492 19.0653L59.7168 18.5966C59.7926 18.696 59.8884 18.8097 60.0044 18.9375C60.1204 19.0677 60.2791 19.1802 60.4803 19.2749C60.6839 19.3719 60.9502 19.4205 61.2793 19.4205C61.7196 19.4205 62.083 19.3139 62.3695 19.1009C62.656 18.8878 62.7992 18.554 62.7992 18.0994V16.9915H62.7282C62.6666 17.0909 62.579 17.214 62.4654 17.3608C62.3541 17.5052 62.1931 17.6342 61.9824 17.7479C61.7741 17.8591 61.4924 17.9148 61.1373 17.9148C60.6969 17.9148 60.3016 17.8106 59.9512 17.6023C59.6032 17.3939 59.3274 17.0909 59.1238 16.6932C58.9225 16.2955 58.8219 15.8125 58.8219 15.2443C58.8219 14.6856 58.9202 14.1991 59.1167 13.7848C59.3132 13.3681 59.5866 13.0462 59.937 12.8189C60.2873 12.5893 60.6922 12.4744 61.1515 12.4744C61.5066 12.4744 61.7883 12.5336 61.9966 12.652C62.2073 12.768 62.3683 12.9006 62.4796 13.0497C62.5932 13.1965 62.6808 13.3172 62.7424 13.4119H62.8276V12.5455H63.6373V18.1562C63.6373 18.625 63.5307 19.0062 63.3176 19.2997C63.1069 19.5956 62.8229 19.8123 62.4654 19.9496C62.1103 20.0893 61.7149 20.1591 61.2793 20.1591ZM61.2509 17.1619C61.5871 17.1619 61.8712 17.085 62.1032 16.9311C62.3352 16.7772 62.5115 16.5559 62.6323 16.267C62.753 15.9782 62.8134 15.6326 62.8134 15.2301C62.8134 14.8371 62.7542 14.4903 62.6358 14.1896C62.5175 13.889 62.3423 13.6534 62.1103 13.483C61.8783 13.3125 61.5918 13.2273 61.2509 13.2273C60.8958 13.2273 60.5998 13.3172 60.3631 13.4972C60.1287 13.6771 59.9524 13.9186 59.834 14.2216C59.718 14.5246 59.66 14.8608 59.66 15.2301C59.66 15.6089 59.7192 15.9439 59.8375 16.2351C59.9583 16.5239 60.1358 16.7512 60.3702 16.9169C60.6069 17.0803 60.9005 17.1619 61.2509 17.1619Z" fill="white"/>
</svg>
