<svg width="22" height="22" viewBox="0 0 22 22" fill="none" xmlns="http://www.w3.org/2000/svg">
<path d="M8.16751 18.9475C7.99334 18.9475 7.81917 18.8834 7.68167 18.7459C7.41584 18.48 7.41584 18.04 7.68167 17.7742L13.6583 11.7975C14.0983 11.3575 14.0983 10.6425 13.6583 10.2025L7.68167 4.22585C7.41584 3.96002 7.41584 3.52002 7.68167 3.25418C7.94751 2.98835 8.38751 2.98835 8.65334 3.25418L14.63 9.23085C15.0975 9.69835 15.3633 10.3309 15.3633 11C15.3633 11.6692 15.1067 12.3017 14.63 12.7692L8.65334 18.7459C8.51584 18.8742 8.34167 18.9475 8.16751 18.9475Z" fill="white"/>
</svg>
