<svg width="42" height="42" viewBox="0 0 42 42" fill="none" xmlns="http://www.w3.org/2000/svg">
<rect x="1" y="1" width="40" height="40" rx="8" fill="#4CACDD" fill-opacity="0.12" stroke="#4CACDD"/>
<circle cx="12.4444" cy="14.3333" r="3.33333" fill="#4CACDD"/>
<path d="M16.1 19.9667C13.8265 21.3854 12.4448 23.8758 12.4444 26.5556H10.2222C8.99644 26.5519 8.00366 25.5592 8 24.3334V22.1112C8.00549 20.2725 9.49466 18.7833 11.3333 18.7778H13.5556C14.5374 18.78 15.4683 19.215 16.1 19.9667Z" fill="#4CACDD"/>
<circle cx="30.2222" cy="14.3333" r="3.33333" fill="#4CACDD"/>
<path d="M34.6667 22.1112V24.3334C34.663 25.5592 33.6702 26.5519 32.4444 26.5556H30.2222C30.2218 23.8758 28.8402 21.3854 26.5667 19.9667C27.1983 19.215 28.1292 18.78 29.1111 18.7778H31.3333C33.172 18.7833 34.6612 20.2725 34.6667 22.1112Z" fill="#4CACDD"/>
<circle cx="21.3334" cy="15.4444" r="4.44444" fill="#4CACDD"/>
<path d="M28 26.5556V27.6667C27.9945 29.5053 26.5053 30.9945 24.6666 31H18C16.1613 30.9945 14.6721 29.5053 14.6666 27.6667V26.5556C14.6666 23.4873 17.1539 21 20.2222 21H22.4444C25.5127 21 28 23.4873 28 26.5556Z" fill="#4CACDD"/>
</svg>
