<svg width="42" height="42" viewBox="0 0 42 42" fill="none" xmlns="http://www.w3.org/2000/svg">
<rect x="1" y="1" width="40" height="40" rx="8" fill="#4CACDD" fill-opacity="0.12" stroke="#4CACDD"/>
<path fill-rule="evenodd" clip-rule="evenodd" d="M17.8947 21.5828C20.7943 21.5828 23.1185 19.2285 23.1185 16.2914C23.1185 13.3543 20.7943 11 17.8947 11C14.9952 11 12.6709 13.3543 12.6709 16.2914C12.6709 19.2285 14.9952 21.5828 17.8947 21.5828ZM17.8947 24.1739C13.636 24.1739 10 24.8548 10 27.5752C10 30.2945 13.6139 31 17.8947 31C22.1524 31 25.7895 30.3191 25.7895 27.5986C25.7895 24.8783 22.1756 24.1739 17.8947 24.1739ZM28.8399 18.4609H30.1063C30.6276 18.4609 31.0526 18.8919 31.0526 19.4205C31.0526 19.9491 30.6276 20.3801 30.1063 20.3801H28.8399V21.6194C28.8399 22.148 28.416 22.5789 27.8937 22.5789C27.3724 22.5789 26.9474 22.148 26.9474 21.6194V20.3801H25.6832C25.1607 20.3801 24.7368 19.9491 24.7368 19.4205C24.7368 18.8919 25.1607 18.4609 25.6832 18.4609H26.9474V17.2228C26.9474 16.6942 27.3724 16.2632 27.8937 16.2632C28.416 16.2632 28.8399 16.6942 28.8399 17.2228V18.4609Z" fill="#4CACDD"/>
</svg>
