<svg width="11" height="14" viewBox="0 0 11 14" fill="none" xmlns="http://www.w3.org/2000/svg">
<path fill-rule="evenodd" clip-rule="evenodd" d="M0 5.28792C0 2.37183 2.3555 0 5.25 0C8.1445 0 10.5 2.37183 10.5 5.28792C10.5 9.43133 5.7435 13.7095 5.54108 13.8897C5.45767 13.9632 5.35383 14 5.25 14C5.14617 14 5.04233 13.9633 4.95892 13.8892C4.7565 13.7095 0 9.43133 0 5.28792ZM2.33333 5.25C2.33333 6.85825 3.64175 8.16667 5.25 8.16667C6.85825 8.16667 8.16667 6.85825 8.16667 5.25C8.16667 3.64175 6.85825 2.33333 5.25 2.33333C3.64175 2.33333 2.33333 3.64175 2.33333 5.25Z" fill="#4CACDD"/>
</svg>
