<svg width="42" height="42" viewBox="0 0 42 42" fill="none" xmlns="http://www.w3.org/2000/svg">
<rect x="1" y="1" width="40" height="40" rx="8" fill="#4CACDD" fill-opacity="0.12" stroke="#4CACDD"/>
<path d="M19.3333 31C20.8425 31 22.105 29.9241 22.395 28.5H16.2716C16.5617 29.9241 17.8242 31 19.3333 31Z" fill="#4CACDD"/>
<path d="M25.6466 23.0799C25.6249 23.0799 25.6049 23.0833 25.5833 23.0833C21.9074 23.0833 18.9167 20.0926 18.9167 16.4167C18.9167 14.9725 19.3833 13.6384 20.1667 12.545V11.8333C20.1667 11.3725 19.7933 11 19.3333 11C18.8734 11 18.5 11.3725 18.5 11.8333V12.7334C15.6774 13.14 13.5 15.5676 13.5 18.5V20.8233C13.5 22.4725 12.7775 24.0292 11.5099 25.1008C11.1859 25.3784 11 25.7816 11 26.2083C11 27.0126 11.6541 27.6667 12.4583 27.6667H26.2083C27.0126 27.6667 27.6667 27.0126 27.6667 26.2083C27.6667 25.7816 27.4809 25.3784 27.1484 25.0942C26.4916 24.5384 25.985 23.8467 25.6466 23.0799Z" fill="#4CACDD"/>
<path fill-rule="evenodd" clip-rule="evenodd" d="M20.1667 16.4167C20.1667 13.43 22.5967 11 25.5833 11C28.5701 11 31 13.43 31 16.4167C31 19.4033 28.5701 21.8333 25.5833 21.8333C22.5967 21.8333 20.1667 19.4033 20.1667 16.4167ZM25.7917 18.9167C26.1367 18.9167 26.4167 18.6367 26.4167 18.2917V14.9583C26.4167 14.6133 26.1367 14.3333 25.7917 14.3333H24.75C24.405 14.3333 24.125 14.6133 24.125 14.9583C24.125 15.3033 24.405 15.5833 24.75 15.5833H25.1667V18.2917C25.1667 18.6367 25.4467 18.9167 25.7917 18.9167Z" fill="#4CACDD"/>
</svg>
