<svg width="42" height="42" viewBox="0 0 42 42" fill="none" xmlns="http://www.w3.org/2000/svg">
<rect x="1" y="1" width="40" height="40" rx="8" fill="#4CACDD" fill-opacity="0.12" stroke="#4CACDD"/>
<path fill-rule="evenodd" clip-rule="evenodd" d="M27.8745 16.7249C28.2981 17.4514 29.0298 17.9452 29.8621 18.0661C30.4119 18.1455 30.8489 18.5683 30.9464 19.1151C31.0636 19.7349 31.1225 20.3643 31.1224 20.995C31.1137 21.593 31.0524 22.1891 30.9393 22.7764C30.8434 23.3358 30.3962 23.7688 29.8339 23.8466C28.9772 23.9489 28.2184 24.448 27.7851 25.1942C27.3518 25.9403 27.2944 26.8467 27.6302 27.6415C27.8392 28.1668 27.6856 28.7669 27.25 29.1271C26.4046 29.8313 25.4543 30.3991 24.4336 30.8099C23.888 31.0283 23.2636 30.852 22.9128 30.3804C22.3928 29.6815 21.5732 29.2691 20.702 29.268C19.8017 29.2658 18.9584 29.7085 18.449 30.4508C18.2068 30.7944 17.8131 30.9991 17.3928 31C17.2418 30.9981 17.092 30.972 16.9493 30.9226C15.833 30.5122 14.7949 29.9146 13.8795 29.1553C13.422 28.7865 13.274 28.1539 13.5204 27.6204C13.8917 26.8116 13.848 25.8731 13.4031 25.1023C12.9583 24.3315 12.1675 23.8241 11.2814 23.7409C10.6963 23.6782 10.2259 23.2309 10.1338 22.6496C10.0438 22.1027 9.99905 21.5493 10 20.995C10 20.333 10.0661 19.6726 10.1972 19.0236C10.3054 18.4612 10.7683 18.0354 11.3378 17.9745C12.2042 17.8943 12.9814 17.4081 13.4325 16.664C13.8837 15.9199 13.9555 15.0061 13.626 14.2007C13.4187 13.6653 13.5843 13.0573 14.0344 12.701C14.9043 12.011 15.8788 11.4644 16.9211 11.0816C17.4483 10.8857 18.0417 11.0504 18.3926 11.49C18.9144 12.1571 19.7142 12.547 20.5612 12.547C21.4082 12.547 22.208 12.1571 22.7298 11.49C23.0807 11.0504 23.6741 10.8857 24.2013 11.0816C25.3301 11.4962 26.3783 12.1037 27.2992 12.877C27.7269 13.2299 27.8826 13.8158 27.6865 14.3344C27.3817 15.1183 27.4509 15.9983 27.8745 16.7249ZM20.5612 24.5154C22.5055 24.5154 24.0816 22.9393 24.0816 20.995C24.0816 19.0508 22.5055 17.4746 20.5612 17.4746C18.6169 17.4746 17.0408 19.0508 17.0408 20.995C17.0408 22.9393 18.6169 24.5154 20.5612 24.5154Z" fill="#4CACDD"/>
</svg>
