<svg width="42" height="42" viewBox="0 0 42 42" fill="none" xmlns="http://www.w3.org/2000/svg">
<rect x="1" y="1" width="40" height="40" rx="8" fill="#4CACDD" fill-opacity="0.12" stroke="#4CACDD"/>
<g clip-path="url(#clip0_989_1142)">
<path d="M26.8594 23.9688C25.7015 23.9688 24.6812 24.5383 24.0404 25.4045L18.4996 22.5673C18.5916 22.2538 18.6562 21.9288 18.6562 21.5859C18.6562 21.1209 18.5609 20.6787 18.3962 20.272L24.1948 16.7827C24.8401 17.54 25.7886 18.0312 26.8594 18.0312C28.798 18.0312 30.375 16.4543 30.375 14.5156C30.375 12.577 28.798 11 26.8594 11C24.9207 11 23.3438 12.577 23.3438 14.5156C23.3438 14.9624 23.4357 15.3862 23.5884 15.7796L17.7725 19.2792C17.1277 18.5444 16.1929 18.0703 15.1406 18.0703C13.202 18.0703 11.625 19.6473 11.625 21.5859C11.625 23.5246 13.202 25.1016 15.1406 25.1016C16.3176 25.1016 17.3551 24.5153 17.9936 23.6248L23.5161 26.4527C23.4143 26.7811 23.3438 27.123 23.3438 27.4844C23.3438 29.423 24.9207 31 26.8594 31C28.798 31 30.375 29.423 30.375 27.4844C30.375 25.5457 28.798 23.9688 26.8594 23.9688Z" fill="#4CACDD"/>
</g>
<defs>
<clipPath id="clip0_989_1142">
<rect width="20" height="20" fill="white" transform="translate(11 11)"/>
</clipPath>
</defs>
</svg>
