<svg width="68" height="31" viewBox="0 0 68 31" fill="none" xmlns="http://www.w3.org/2000/svg">
<rect opacity="0.25" width="68" height="31" rx="5" fill="#4E5669"/>
<path d="M33.7173 19V11.7273H38.3764V12.8317H35.0348V14.8061H38.0568V15.9105H35.0348V19H33.7173ZM39.5199 19V13.5455H40.8054V19H39.5199ZM40.1662 12.7713C39.9626 12.7713 39.7874 12.7038 39.6406 12.5689C39.4938 12.4316 39.4205 12.267 39.4205 12.0753C39.4205 11.8812 39.4938 11.7166 39.6406 11.5817C39.7874 11.4444 39.9626 11.3757 40.1662 11.3757C40.3722 11.3757 40.5473 11.4444 40.6918 11.5817C40.8385 11.7166 40.9119 11.8812 40.9119 12.0753C40.9119 12.267 40.8385 12.4316 40.6918 12.5689C40.5473 12.7038 40.3722 12.7713 40.1662 12.7713ZM43.4128 11.7273V19H42.1273V11.7273H43.4128ZM47.4585 13.5455V14.5398H44.3228V13.5455H47.4585ZM45.0969 12.2386H46.3825V17.3594C46.3825 17.5322 46.4085 17.6648 46.4606 17.7571C46.515 17.8471 46.5861 17.9086 46.6737 17.9418C46.7612 17.9749 46.8583 17.9915 46.9648 17.9915C47.0453 17.9915 47.1187 17.9856 47.185 17.9737C47.2537 17.9619 47.3058 17.9512 47.3413 17.9418L47.5579 18.9467C47.4892 18.9704 47.391 18.9964 47.2631 19.0249C47.1377 19.0533 46.9838 19.0698 46.8015 19.0746C46.4795 19.084 46.1895 19.0355 45.9315 18.929C45.6734 18.8201 45.4686 18.652 45.3171 18.4247C45.168 18.1974 45.0946 17.9134 45.0969 17.5724V12.2386ZM50.8897 19.1065C50.3429 19.1065 49.8706 18.9929 49.4728 18.7656C49.0775 18.536 48.7733 18.2116 48.5602 17.7926C48.3471 17.3712 48.2406 16.8752 48.2406 16.3047C48.2406 15.7436 48.3471 15.2512 48.5602 14.8274C48.7756 14.4013 49.0763 14.0698 49.4622 13.8331C49.8481 13.594 50.3014 13.4744 50.8223 13.4744C51.1584 13.4744 51.4757 13.5289 51.774 13.6378C52.0746 13.7443 52.3398 13.91 52.5694 14.1349C52.8014 14.3598 52.9837 14.6463 53.1163 14.9943C53.2489 15.34 53.3152 15.7519 53.3152 16.2301V16.6243H48.8443V15.7578H52.0829C52.0806 15.5116 52.0273 15.2926 51.9231 15.1009C51.819 14.9067 51.6734 14.754 51.4863 14.6428C51.3017 14.5315 51.0862 14.4759 50.84 14.4759C50.5772 14.4759 50.3464 14.5398 50.1475 14.6676C49.9487 14.7931 49.7936 14.9588 49.6824 15.1648C49.5734 15.3684 49.5178 15.5921 49.5154 15.8359V16.5923C49.5154 16.9096 49.5734 17.1818 49.6895 17.4091C49.8055 17.634 49.9676 17.8068 50.176 17.9276C50.3843 18.0459 50.6281 18.1051 50.9075 18.1051C51.0945 18.1051 51.2638 18.0791 51.4153 18.027C51.5668 17.9725 51.6982 17.8932 51.8095 17.7891C51.9208 17.6849 52.0048 17.5559 52.0616 17.402L53.2619 17.5369C53.1861 17.8542 53.0417 18.1312 52.8287 18.3679C52.618 18.6023 52.3481 18.7846 52.019 18.9148C51.6899 19.0426 51.3135 19.1065 50.8897 19.1065ZM54.4027 19V13.5455H55.6491V14.4545H55.706C55.8054 14.1397 55.9759 13.897 56.2173 13.7266C56.4612 13.5537 56.7393 13.4673 57.0518 13.4673C57.1229 13.4673 57.2022 13.4709 57.2898 13.478C57.3797 13.4827 57.4543 13.491 57.5135 13.5028V14.6854C57.459 14.6664 57.3726 14.6499 57.2543 14.6357C57.1383 14.6191 57.0258 14.6108 56.9169 14.6108C56.6825 14.6108 56.4718 14.6617 56.2848 14.7635C56.1001 14.8629 55.9545 15.0014 55.848 15.179C55.7415 15.3565 55.6882 15.5613 55.6882 15.7933V19H54.4027Z" fill="#4CACDD"/>
<path fill-rule="evenodd" clip-rule="evenodd" d="M13.3944 9L13.3943 20.238L14.3267 19.3069L15.3465 20.3267L12.6733 23L10 20.3267L11.0198 19.3069L11.9521 20.238L11.9522 9H13.3944ZM19.8845 19.8168V21.2591H16.2789V19.8168H19.8845ZM22.0478 17.6535V16.2112H16.2789V17.6535H22.0478ZM24.2112 12.6056V14.0478H16.2789V12.6056H24.2112ZM26.3746 10.4422V9H16.2789V10.4422H26.3746Z" fill="#4CACDD"/>
</svg>
